<svg width="1530" height="740" viewBox="0 0 1530 740" fill="none" xmlns="http://www.w3.org/2000/svg">
<g clip-path="url(#clip0_21_3)">
<path d="M765 313L756.34 328L773.66 328L765 313ZM765 580L773.66 565L756.34 565L765 580ZM763.5 326.5L763.5 566.5L766.5 566.5L766.5 326.5L763.5 326.5Z" fill="#344654"/>
<path d="M764.999 122L756.339 137L773.659 137L764.999 122ZM763.499 135.5L763.5 228.5L766.5 228.5L766.499 135.5L763.499 135.5Z" fill="#344654"/>
<path d="M958.25 451.999L943.249 443.339L943.25 460.659L958.25 451.999ZM944.749 450.499L851.749 450.5L851.75 453.5L944.75 453.499L944.749 450.499Z" fill="#344654"/>
<path d="M1085 514L1076.34 529L1093.66 529L1085 514ZM1083.5 527.5L1083.5 620.5L1086.5 620.5L1086.5 527.5L1083.5 527.5Z" fill="#344654"/>
<path d="M924 431L924 432.5L925.5 432.5L925.5 431H924ZM924 154.5L925.5 154.5L925.5 153L924 153L924 154.5ZM790.5 121.5L781.613 136.367L798.932 136.629L790.5 121.5ZM790 154.5L788.5 154.477L788.477 156L790 156L790 154.5ZM924 429.5L872 429.5L872 432.5L924 432.5L924 429.5ZM925.5 431L925.5 154.5L922.5 154.5L922.5 431L925.5 431ZM924 153L790 153L790 156L924 156L924 153ZM791.5 154.523L791.795 135.021L788.796 134.976L788.5 154.477L791.5 154.523Z" fill="#344654"/>
<path d="M1278.25 451.999L1263.25 443.339L1263.25 460.659L1278.25 451.999ZM1264.75 450.499L1171.75 450.5L1171.75 453.5L1264.75 453.499L1264.75 450.499Z" fill="#344654"/>
<path d="M638.25 451.999L623.249 443.339L623.25 460.659L638.25 451.999ZM624.749 450.499L531.749 450.5L531.75 453.5L624.75 453.499L624.749 450.499Z" fill="#344654"/>
<path d="M318.25 451.999L303.249 443.339L303.25 460.659L318.25 451.999ZM304.749 450.499L211.749 450.5L211.75 453.5L304.75 453.499L304.749 450.499Z" fill="#344654"/>
<path d="M740 313.5L731.34 328.5L748.66 328.5L740 313.5ZM470 358.5L470 357L468.5 357L468.5 358.5L470 358.5ZM740 358.5L740 360L741.5 360L741.5 358.5L740 358.5ZM471.5 392C471.5 376.316 471.5 370.283 471.5 369.08C471.5 368.93 471.5 368.855 471.5 368.846C471.5 368.846 471.5 368.845 471.5 368.845C470 367.345 468.5 368.846 468.5 368.846C468.5 368.847 468.5 368.849 468.5 368.852C468.5 368.858 468.5 368.868 468.5 368.881C468.5 368.909 468.5 368.952 468.5 369.009C468.5 369.236 468.5 369.691 468.5 370.296C468.5 371.507 468.5 373.323 468.5 375.141C468.5 376.959 468.5 378.78 468.5 380C468.5 380.61 468.5 381.07 468.5 381.304C468.5 381.363 468.5 381.407 468.5 381.437C468.5 381.451 468.5 381.462 468.5 381.469C468.5 381.472 468.5 381.475 468.5 381.476C468.5 381.477 468.5 381.477 468.5 381.478C470 379.978 471.5 381.478 471.5 381.478C471.5 381.473 471.5 381.402 471.5 381.256C471.5 380.09 471.5 374.111 471.5 358.5L468.5 358.5C468.5 374.111 468.5 380.09 468.5 381.256C468.5 381.402 468.5 381.473 468.5 381.478C468.5 381.478 470 382.978 471.5 381.478C471.5 381.477 471.5 381.477 471.5 381.476C471.5 381.475 471.5 381.472 471.5 381.469C471.5 381.462 471.5 381.451 471.5 381.437C471.5 381.407 471.5 381.363 471.5 381.304C471.5 381.07 471.5 380.61 471.5 380C471.5 378.78 471.5 376.959 471.5 375.141C471.5 373.323 471.5 371.507 471.5 370.296C471.5 369.691 471.5 369.236 471.5 369.009C471.5 368.952 471.5 368.909 471.5 368.881C471.5 368.868 471.5 368.858 471.5 368.852C471.5 368.849 471.5 368.847 471.5 368.846C471.5 368.846 470 370.345 468.5 368.845C468.5 368.845 468.5 368.846 468.5 368.846C468.5 368.855 468.5 368.93 468.5 369.08C468.5 370.283 468.5 376.316 468.5 392H471.5ZM470 360L740 360L740 357L470 357L470 360ZM741.5 358.5L741.5 327L738.5 327L738.5 358.5L741.5 358.5Z" fill="#344654"/>
<path d="M790 313L798.66 328L781.34 328L790 313ZM1060 358L1060 356.5L1061.5 356.5L1061.5 358L1060 358ZM790 358L790 359.5L788.5 359.5L788.5 358L790 358ZM1058.5 391.5C1058.5 375.816 1058.5 369.783 1058.5 368.58C1058.5 368.43 1058.5 368.355 1058.5 368.346C1058.5 368.346 1058.5 368.345 1058.5 368.345C1060 366.845 1061.5 368.346 1061.5 368.346C1061.5 368.347 1061.5 368.349 1061.5 368.352C1061.5 368.358 1061.5 368.368 1061.5 368.381C1061.5 368.409 1061.5 368.452 1061.5 368.509C1061.5 368.736 1061.5 369.191 1061.5 369.796C1061.5 371.007 1061.5 372.823 1061.5 374.641C1061.5 376.459 1061.5 378.28 1061.5 379.5C1061.5 380.11 1061.5 380.57 1061.5 380.804C1061.5 380.863 1061.5 380.907 1061.5 380.937C1061.5 380.951 1061.5 380.962 1061.5 380.969C1061.5 380.972 1061.5 380.975 1061.5 380.976C1061.5 380.977 1061.5 380.977 1061.5 380.978C1060 379.478 1058.5 380.978 1058.5 380.978C1058.5 380.973 1058.5 380.902 1058.5 380.756C1058.5 379.59 1058.5 373.611 1058.5 358L1061.5 358C1061.5 373.611 1061.5 379.59 1061.5 380.756C1061.5 380.902 1061.5 380.973 1061.5 380.978C1061.5 380.978 1060 382.478 1058.5 380.978C1058.5 380.977 1058.5 380.977 1058.5 380.976C1058.5 380.975 1058.5 380.972 1058.5 380.969C1058.5 380.962 1058.5 380.951 1058.5 380.937C1058.5 380.907 1058.5 380.863 1058.5 380.804C1058.5 380.57 1058.5 380.11 1058.5 379.5C1058.5 378.28 1058.5 376.459 1058.5 374.641C1058.5 372.823 1058.5 371.007 1058.5 369.796C1058.5 369.191 1058.5 368.736 1058.5 368.509C1058.5 368.452 1058.5 368.409 1058.5 368.381C1058.5 368.368 1058.5 368.358 1058.5 368.352C1058.5 368.349 1058.5 368.347 1058.5 368.346C1058.5 368.346 1060 369.845 1061.5 368.345C1061.5 368.345 1061.5 368.346 1061.5 368.346C1061.5 368.355 1061.5 368.43 1061.5 368.58C1061.5 369.783 1061.5 375.816 1061.5 391.5H1058.5ZM1060 359.5L790 359.5L790 356.5L1060 356.5L1060 359.5ZM788.5 358L788.5 326.5L791.5 326.5L791.5 358L788.5 358Z" fill="#344654"/>
<path d="M637 60.5L622 51.8397L622 69.1602L637 60.5ZM445 60.5L445 59L443.5 59L443.5 60.5L445 60.5ZM446.5 391C446.5 328.269 446.5 122.941 446.5 60.5L443.5 60.5C443.5 122.95 443.5 328.26 443.5 391H446.5ZM445 62L623.5 62L623.5 59L445 59L445 62Z" fill="#344654"/>
<path d="M893 60.5L908 51.8397L908 69.1602L893 60.5ZM1085 60.5L1085 59L1086.5 59L1086.5 60.5L1085 60.5ZM1083.5 391C1083.5 328.269 1083.5 122.941 1083.5 60.5L1086.5 60.5C1086.5 122.95 1086.5 328.26 1086.5 391H1083.5ZM1085 62L906.5 62L906.5 59L1085 59L1085 62Z" fill="#344654"/>
<path d="M117 740L115.5 740L115.5 741.5L117 741.5L117 740ZM1085.5 740L1085.5 741.5L1087 741.5L1087 740L1085.5 740ZM1085.5 704L1076.84 719L1094.16 719L1085.5 704ZM115.5 511L115.5 740L118.5 740L118.5 511L115.5 511ZM117 741.5L1085.5 741.5L1085.5 738.5L117 738.5L117 741.5ZM1087 740L1087 717.5L1084 717.5L1084 740L1087 740Z" fill="#344654"/>
<line x1="119" y1="738" x2="1086" y2="738" stroke="black" stroke-width="2"/>
<path d="M960 590C960 587.878 961.317 585.843 963.661 584.343C966.005 582.843 969.185 582 972.5 582H1197.5C1200.82 582 1203.99 582.843 1206.34 584.343C1208.68 585.843 1210 587.878 1210 590V694C1210 696.122 1208.68 698.157 1206.34 699.657C1203.99 701.157 1200.82 702 1197.5 702H972.5C969.185 702 966.005 701.157 963.661 699.657C961.317 698.157 960 696.122 960 694V590Z" fill="#4CA2FF"/>
<path d="M1014.64 654V630H1029.52V633.117H1018.26V640.43H1028.45V643.535H1018.26V654H1014.64ZM1036.87 654.398C1035.72 654.398 1034.69 654.188 1033.77 653.766C1032.85 653.336 1032.12 652.715 1031.58 651.902C1031.05 651.09 1030.78 650.094 1030.78 648.914C1030.78 647.898 1030.98 647.062 1031.37 646.406C1031.76 645.75 1032.29 645.23 1032.95 644.848C1033.62 644.465 1034.36 644.176 1035.18 643.98C1036 643.785 1036.83 643.637 1037.69 643.535C1038.76 643.41 1039.64 643.309 1040.31 643.23C1040.98 643.145 1041.47 643.008 1041.78 642.82C1042.08 642.633 1042.23 642.328 1042.23 641.906V641.824C1042.23 640.801 1041.94 640.008 1041.37 639.445C1040.79 638.883 1039.94 638.602 1038.81 638.602C1037.63 638.602 1036.7 638.863 1036.02 639.387C1035.35 639.902 1034.88 640.477 1034.63 641.109L1031.33 640.359C1031.72 639.266 1032.29 638.383 1033.04 637.711C1033.8 637.031 1034.67 636.539 1035.66 636.234C1036.64 635.922 1037.68 635.766 1038.76 635.766C1039.48 635.766 1040.24 635.852 1041.05 636.023C1041.86 636.187 1042.62 636.492 1043.32 636.937C1044.03 637.383 1044.62 638.02 1045.07 638.848C1045.52 639.668 1045.75 640.734 1045.75 642.047V654H1042.33V651.539H1042.19C1041.96 651.992 1041.62 652.437 1041.17 652.875C1040.71 653.312 1040.13 653.676 1039.42 653.965C1038.71 654.254 1037.86 654.398 1036.87 654.398ZM1037.63 651.586C1038.6 651.586 1039.42 651.395 1040.11 651.012C1040.81 650.629 1041.33 650.129 1041.69 649.512C1042.06 648.887 1042.24 648.219 1042.24 647.508V645.187C1042.12 645.312 1041.88 645.43 1041.52 645.539C1041.17 645.641 1040.76 645.73 1040.31 645.809C1039.86 645.879 1039.42 645.945 1038.99 646.008C1038.56 646.062 1038.2 646.109 1037.91 646.148C1037.23 646.234 1036.61 646.379 1036.04 646.582C1035.49 646.785 1035.04 647.078 1034.71 647.461C1034.38 647.836 1034.22 648.336 1034.22 648.961C1034.22 649.828 1034.54 650.484 1035.18 650.93C1035.82 651.367 1036.63 651.586 1037.63 651.586ZM1061.9 640.395L1058.73 640.957C1058.59 640.551 1058.38 640.164 1058.09 639.797C1057.81 639.43 1057.43 639.129 1056.95 638.895C1056.46 638.66 1055.86 638.543 1055.13 638.543C1054.14 638.543 1053.31 638.766 1052.65 639.211C1051.98 639.648 1051.65 640.215 1051.65 640.91C1051.65 641.512 1051.87 641.996 1052.32 642.363C1052.76 642.73 1053.48 643.031 1054.47 643.266L1057.33 643.922C1058.99 644.305 1060.22 644.895 1061.04 645.691C1061.85 646.488 1062.25 647.523 1062.25 648.797C1062.25 649.875 1061.94 650.836 1061.32 651.68C1060.7 652.516 1059.84 653.172 1058.73 653.648C1057.63 654.125 1056.35 654.363 1054.9 654.363C1052.88 654.363 1051.24 653.934 1049.96 653.074C1048.69 652.207 1047.91 650.977 1047.62 649.383L1051 648.867C1051.22 649.75 1051.65 650.418 1052.31 650.871C1052.96 651.316 1053.82 651.539 1054.87 651.539C1056.02 651.539 1056.94 651.301 1057.63 650.824C1058.31 650.34 1058.66 649.75 1058.66 649.055C1058.66 648.492 1058.45 648.02 1058.02 647.637C1057.61 647.254 1056.97 646.965 1056.11 646.77L1053.07 646.102C1051.39 645.719 1050.15 645.109 1049.34 644.273C1048.54 643.437 1048.15 642.379 1048.15 641.098C1048.15 640.035 1048.44 639.105 1049.04 638.309C1049.63 637.512 1050.45 636.891 1051.5 636.445C1052.54 635.992 1053.74 635.766 1055.09 635.766C1057.04 635.766 1058.57 636.187 1059.69 637.031C1060.81 637.867 1061.54 638.988 1061.9 640.395ZM1072.51 636V638.812H1062.68V636H1072.51ZM1065.31 631.687H1068.82V648.715C1068.82 649.395 1068.92 649.906 1069.12 650.25C1069.33 650.586 1069.59 650.816 1069.91 650.941C1070.24 651.059 1070.59 651.117 1070.97 651.117C1071.26 651.117 1071.5 651.098 1071.71 651.059C1071.92 651.02 1072.09 650.988 1072.21 650.965L1072.84 653.859C1072.63 653.937 1072.35 654.016 1071.97 654.094C1071.6 654.18 1071.13 654.227 1070.56 654.234C1069.64 654.25 1068.78 654.086 1067.99 653.742C1067.19 653.398 1066.54 652.867 1066.05 652.148C1065.56 651.43 1065.31 650.527 1065.31 649.441V631.687ZM1080.22 633.117V630H1098.79V633.117H1091.3V654H1087.69V633.117H1080.22ZM1098.75 654V636H1102.13V638.859H1102.32C1102.65 637.891 1103.23 637.129 1104.05 636.574C1104.89 636.012 1105.83 635.73 1106.89 635.73C1107.11 635.73 1107.37 635.738 1107.66 635.754C1107.97 635.77 1108.21 635.789 1108.38 635.812V639.164C1108.24 639.125 1107.99 639.082 1107.63 639.035C1107.27 638.98 1106.91 638.953 1106.55 638.953C1105.72 638.953 1104.98 639.129 1104.33 639.48C1103.69 639.824 1103.19 640.305 1102.81 640.922C1102.44 641.531 1102.25 642.227 1102.25 643.008V654H1098.75ZM1114.49 654.398C1113.35 654.398 1112.32 654.188 1111.39 653.766C1110.47 653.336 1109.74 652.715 1109.2 651.902C1108.67 651.09 1108.41 650.094 1108.41 648.914C1108.41 647.898 1108.6 647.062 1108.99 646.406C1109.38 645.75 1109.91 645.23 1110.57 644.848C1111.24 644.465 1111.98 644.176 1112.8 643.98C1113.62 643.785 1114.46 643.637 1115.31 643.535C1116.39 643.41 1117.26 643.309 1117.93 643.23C1118.6 643.145 1119.09 643.008 1119.4 642.82C1119.7 642.633 1119.85 642.328 1119.85 641.906V641.824C1119.85 640.801 1119.57 640.008 1118.99 639.445C1118.42 638.883 1117.57 638.602 1116.43 638.602C1115.25 638.602 1114.32 638.863 1113.64 639.387C1112.97 639.902 1112.51 640.477 1112.25 641.109L1108.96 640.359C1109.35 639.266 1109.92 638.383 1110.67 637.711C1111.42 637.031 1112.3 636.539 1113.28 636.234C1114.26 635.922 1115.3 635.766 1116.39 635.766C1117.1 635.766 1117.87 635.852 1118.67 636.023C1119.48 636.187 1120.24 636.492 1120.94 636.937C1121.66 637.383 1122.24 638.02 1122.69 638.848C1123.14 639.668 1123.37 640.734 1123.37 642.047V654H1119.95V651.539H1119.81C1119.58 651.992 1119.24 652.437 1118.79 652.875C1118.33 653.312 1117.75 653.676 1117.04 653.965C1116.33 654.254 1115.48 654.398 1114.49 654.398ZM1115.25 651.586C1116.22 651.586 1117.05 651.395 1117.73 651.012C1118.43 650.629 1118.96 650.129 1119.32 649.512C1119.68 648.887 1119.87 648.219 1119.87 647.508V645.187C1119.74 645.312 1119.5 645.43 1119.14 645.539C1118.79 645.641 1118.39 645.73 1117.93 645.809C1117.48 645.879 1117.04 645.945 1116.61 646.008C1116.18 646.062 1115.82 646.109 1115.53 646.148C1114.85 646.234 1114.23 646.379 1113.67 646.582C1113.11 646.785 1112.67 647.078 1112.33 647.461C1112 647.836 1111.84 648.336 1111.84 648.961C1111.84 649.828 1112.16 650.484 1112.8 650.93C1113.44 651.367 1114.26 651.586 1115.25 651.586ZM1133.62 654.363C1131.88 654.363 1130.38 653.969 1129.12 653.18C1127.87 652.383 1126.91 651.285 1126.24 649.887C1125.56 648.488 1125.23 646.887 1125.23 645.082C1125.23 643.254 1125.57 641.641 1126.26 640.242C1126.95 638.836 1127.92 637.738 1129.17 636.949C1130.42 636.16 1131.89 635.766 1133.58 635.766C1134.95 635.766 1136.17 636.02 1137.24 636.527C1138.31 637.027 1139.17 637.73 1139.83 638.637C1140.49 639.543 1140.89 640.602 1141.01 641.812H1137.6C1137.42 640.969 1136.99 640.242 1136.31 639.633C1135.65 639.023 1134.76 638.719 1133.64 638.719C1132.67 638.719 1131.81 638.977 1131.08 639.492C1130.35 640 1129.78 640.727 1129.38 641.672C1128.97 642.609 1128.77 643.719 1128.77 645C1128.77 646.312 1128.97 647.445 1129.37 648.398C1129.76 649.352 1130.33 650.09 1131.05 650.613C1131.79 651.137 1132.65 651.398 1133.64 651.398C1134.31 651.398 1134.91 651.277 1135.45 651.035C1135.99 650.785 1136.45 650.43 1136.82 649.969C1137.19 649.508 1137.46 648.953 1137.6 648.305H1141.01C1140.89 649.469 1140.51 650.508 1139.88 651.422C1139.24 652.336 1138.4 653.055 1137.33 653.578C1136.28 654.102 1135.04 654.363 1133.62 654.363ZM1145.98 647.895L1145.96 643.617H1146.57L1153.74 636H1157.94L1149.76 644.672H1149.21L1145.98 647.895ZM1142.76 654V630H1146.26V654H1142.76ZM1154.13 654L1147.68 645.445L1150.1 642.996L1158.43 654H1154.13Z" fill="white"/>
<path d="M639 590C639 587.878 640.317 585.843 642.661 584.343C645.005 582.843 648.185 582 651.5 582H876.5C879.815 582 882.995 582.843 885.339 584.343C887.683 585.843 889 587.878 889 590V694C889 696.122 887.683 698.157 885.339 699.657C882.995 701.157 879.815 702 876.5 702H651.5C648.185 702 645.005 701.157 642.661 699.657C640.317 698.157 639 696.122 639 694V590Z" fill="#344654"/>
<path d="M724.637 654V630H728.258V650.883H739.133V654H724.637ZM740.982 654V636H744.486V654H740.982ZM742.752 633.223C742.143 633.223 741.619 633.02 741.182 632.613C740.752 632.199 740.537 631.707 740.537 631.137C740.537 630.559 740.752 630.066 741.182 629.66C741.619 629.246 742.143 629.039 742.752 629.039C743.361 629.039 743.881 629.246 744.311 629.66C744.748 630.066 744.967 630.559 744.967 631.137C744.967 631.707 744.748 632.199 744.311 632.613C743.881 633.02 743.361 633.223 742.752 633.223ZM762.599 636L756.071 654H752.321L745.782 636H749.544L754.103 649.852H754.29L758.837 636H762.599ZM763.892 654V636H767.396V654H763.892ZM765.661 633.223C765.052 633.223 764.528 633.02 764.091 632.613C763.661 632.199 763.446 631.707 763.446 631.137C763.446 630.559 763.661 630.066 764.091 629.66C764.528 629.246 765.052 629.039 765.661 629.039C766.271 629.039 766.79 629.246 767.22 629.66C767.657 630.066 767.876 630.559 767.876 631.137C767.876 631.707 767.657 632.199 767.22 632.613C766.79 633.02 766.271 633.223 765.661 633.223ZM773.613 643.312V654H770.109V636H773.473V638.93H773.695C774.109 637.977 774.758 637.211 775.641 636.633C776.531 636.055 777.652 635.766 779.004 635.766C780.23 635.766 781.305 636.023 782.227 636.539C783.148 637.047 783.863 637.805 784.371 638.812C784.879 639.82 785.133 641.066 785.133 642.551V654H781.629V642.973C781.629 641.668 781.289 640.648 780.609 639.914C779.93 639.172 778.996 638.801 777.809 638.801C776.996 638.801 776.273 638.977 775.641 639.328C775.016 639.68 774.52 640.195 774.152 640.875C773.793 641.547 773.613 642.359 773.613 643.312ZM795.379 661.125C793.949 661.125 792.719 660.938 791.688 660.563C790.664 660.188 789.828 659.691 789.18 659.074C788.531 658.457 788.047 657.781 787.727 657.047L790.738 655.805C790.949 656.148 791.23 656.512 791.582 656.895C791.941 657.285 792.426 657.617 793.035 657.891C793.652 658.164 794.445 658.301 795.414 658.301C796.742 658.301 797.84 657.977 798.707 657.328C799.574 656.687 800.008 655.664 800.008 654.258V650.719H799.785C799.574 651.102 799.27 651.527 798.871 651.996C798.48 652.465 797.941 652.871 797.254 653.215C796.566 653.559 795.672 653.73 794.57 653.73C793.148 653.73 791.867 653.398 790.727 652.734C789.594 652.062 788.695 651.074 788.031 649.77C787.375 648.457 787.047 646.844 787.047 644.93C787.047 643.016 787.371 641.375 788.02 640.008C788.676 638.641 789.574 637.594 790.715 636.867C791.855 636.133 793.148 635.766 794.594 635.766C795.711 635.766 796.613 635.953 797.301 636.328C797.988 636.695 798.523 637.125 798.906 637.617C799.297 638.109 799.598 638.543 799.809 638.918H800.066V636H803.5V654.398C803.5 655.945 803.141 657.215 802.422 658.207C801.703 659.199 800.73 659.934 799.504 660.41C798.285 660.887 796.91 661.125 795.379 661.125ZM795.344 650.824C796.352 650.824 797.203 650.59 797.898 650.121C798.602 649.645 799.133 648.965 799.492 648.082C799.859 647.191 800.043 646.125 800.043 644.883C800.043 643.672 799.863 642.605 799.504 641.684C799.145 640.762 798.617 640.043 797.922 639.527C797.227 639.004 796.367 638.742 795.344 638.742C794.289 638.742 793.41 639.016 792.707 639.562C792.004 640.102 791.473 640.836 791.113 641.766C790.762 642.695 790.586 643.734 790.586 644.883C790.586 646.063 790.766 647.098 791.125 647.988C791.484 648.879 792.016 649.574 792.719 650.074C793.43 650.574 794.305 650.824 795.344 650.824Z" fill="white"/>
<path d="M0 400C0 397.878 1.31695 395.843 3.66116 394.343C6.00536 392.843 9.18479 392 12.5 392H237.5C240.815 392 243.995 392.843 246.339 394.343C248.683 395.843 250 397.878 250 400V504C250 506.122 248.683 508.157 246.339 509.657C243.995 511.157 240.815 512 237.5 512H12.5C9.18479 512 6.00536 511.157 3.66116 509.657C1.31695 508.157 0 506.122 0 504V400Z" fill="#4CA2FF"/>
<path d="M100.258 440V464H96.6367V440H100.258ZM109.988 464.352C108.535 464.352 107.238 463.98 106.098 463.238C104.965 462.488 104.074 461.422 103.426 460.039C102.785 458.648 102.465 456.98 102.465 455.035C102.465 453.09 102.789 451.426 103.438 450.043C104.094 448.66 104.992 447.602 106.133 446.867C107.273 446.133 108.566 445.766 110.012 445.766C111.129 445.766 112.027 445.953 112.707 446.328C113.395 446.695 113.926 447.125 114.301 447.617C114.684 448.109 114.98 448.543 115.191 448.918H115.402V440H118.906V464H115.484V461.199H115.191C114.98 461.582 114.676 462.02 114.277 462.512C113.887 463.004 113.348 463.434 112.66 463.801C111.973 464.168 111.082 464.352 109.988 464.352ZM110.762 461.363C111.77 461.363 112.621 461.098 113.316 460.566C114.02 460.027 114.551 459.281 114.91 458.328C115.277 457.375 115.461 456.266 115.461 455C115.461 453.75 115.281 452.656 114.922 451.719C114.563 450.781 114.035 450.051 113.34 449.527C112.645 449.004 111.785 448.742 110.762 448.742C109.707 448.742 108.828 449.016 108.125 449.562C107.422 450.109 106.891 450.855 106.531 451.801C106.18 452.746 106.004 453.812 106.004 455C106.004 456.203 106.184 457.285 106.543 458.246C106.902 459.207 107.434 459.969 108.137 460.531C108.848 461.086 109.723 461.363 110.762 461.363ZM129.665 464.363C127.892 464.363 126.364 463.984 125.083 463.227C123.81 462.461 122.825 461.387 122.13 460.004C121.442 458.613 121.099 456.984 121.099 455.117C121.099 453.273 121.442 451.648 122.13 450.242C122.825 448.836 123.794 447.738 125.036 446.949C126.286 446.16 127.747 445.766 129.419 445.766C130.435 445.766 131.419 445.934 132.372 446.27C133.325 446.605 134.181 447.133 134.938 447.852C135.696 448.57 136.294 449.504 136.731 450.652C137.169 451.793 137.388 453.18 137.388 454.812V456.055H123.079V453.43H133.954C133.954 452.508 133.767 451.691 133.392 450.98C133.017 450.262 132.489 449.695 131.81 449.281C131.138 448.867 130.349 448.66 129.442 448.66C128.458 448.66 127.599 448.902 126.864 449.387C126.138 449.863 125.575 450.488 125.177 451.262C124.786 452.027 124.591 452.859 124.591 453.758V455.809C124.591 457.012 124.802 458.035 125.224 458.879C125.653 459.723 126.251 460.367 127.017 460.812C127.782 461.25 128.677 461.469 129.7 461.469C130.364 461.469 130.97 461.375 131.517 461.187C132.063 460.992 132.536 460.703 132.935 460.32C133.333 459.937 133.638 459.465 133.849 458.902L137.165 459.5C136.899 460.477 136.423 461.332 135.735 462.066C135.056 462.793 134.2 463.359 133.169 463.766C132.146 464.164 130.978 464.363 129.665 464.363ZM144.514 464.398C143.373 464.398 142.342 464.188 141.42 463.766C140.498 463.336 139.768 462.715 139.229 461.902C138.697 461.09 138.432 460.094 138.432 458.914C138.432 457.898 138.627 457.062 139.018 456.406C139.408 455.75 139.936 455.23 140.6 454.848C141.264 454.465 142.006 454.176 142.826 453.98C143.646 453.785 144.482 453.637 145.334 453.535C146.412 453.41 147.287 453.309 147.959 453.23C148.631 453.145 149.119 453.008 149.424 452.82C149.729 452.633 149.881 452.328 149.881 451.906V451.824C149.881 450.801 149.592 450.008 149.014 449.445C148.443 448.883 147.592 448.602 146.459 448.602C145.279 448.602 144.35 448.863 143.67 449.387C142.998 449.902 142.533 450.477 142.275 451.109L138.982 450.359C139.373 449.266 139.943 448.383 140.693 447.711C141.451 447.031 142.322 446.539 143.307 446.234C144.291 445.922 145.326 445.766 146.412 445.766C147.131 445.766 147.893 445.852 148.697 446.023C149.51 446.187 150.268 446.492 150.971 446.937C151.682 447.383 152.264 448.02 152.717 448.848C153.17 449.668 153.396 450.734 153.396 452.047V464H149.975V461.539H149.834C149.607 461.992 149.268 462.437 148.814 462.875C148.361 463.312 147.779 463.676 147.068 463.965C146.357 464.254 145.506 464.398 144.514 464.398ZM145.275 461.586C146.244 461.586 147.072 461.395 147.76 461.012C148.455 460.629 148.982 460.129 149.342 459.512C149.709 458.887 149.893 458.219 149.893 457.508V455.187C149.768 455.312 149.525 455.43 149.166 455.539C148.814 455.641 148.412 455.73 147.959 455.809C147.506 455.879 147.064 455.945 146.635 456.008C146.205 456.062 145.846 456.109 145.557 456.148C144.877 456.234 144.256 456.379 143.693 456.582C143.139 456.785 142.693 457.078 142.357 457.461C142.029 457.836 141.865 458.336 141.865 458.961C141.865 459.828 142.186 460.484 142.826 460.93C143.467 461.367 144.283 461.586 145.275 461.586Z" fill="white"/>
<path d="M1280 400C1280 397.878 1281.32 395.843 1283.66 394.343C1286.01 392.843 1289.18 392 1292.5 392H1517.5C1520.82 392 1523.99 392.843 1526.34 394.343C1528.68 395.843 1530 397.878 1530 400V504C1530 506.122 1528.68 508.157 1526.34 509.657C1523.99 511.157 1520.82 512 1517.5 512H1292.5C1289.18 512 1286.01 511.157 1283.66 509.657C1281.32 508.157 1280 506.122 1280 504V400Z" fill="#4CA2FF"/>
<path d="M1374.64 464V440H1389.52V443.117H1378.26V450.43H1388.45V453.535H1378.26V464H1374.64ZM1391.69 464V446H1395.2V464H1391.69ZM1393.46 443.223C1392.85 443.223 1392.33 443.02 1391.89 442.613C1391.46 442.199 1391.25 441.707 1391.25 441.137C1391.25 440.559 1391.46 440.066 1391.89 439.66C1392.33 439.246 1392.85 439.039 1393.46 439.039C1394.07 439.039 1394.59 439.246 1395.02 439.66C1395.46 440.066 1395.68 440.559 1395.68 441.137C1395.68 441.707 1395.46 442.199 1395.02 442.613C1394.59 443.02 1394.07 443.223 1393.46 443.223ZM1401.41 453.312V464H1397.91V446H1401.27V448.93H1401.5C1401.91 447.977 1402.56 447.211 1403.44 446.633C1404.33 446.055 1405.45 445.766 1406.8 445.766C1408.03 445.766 1409.1 446.023 1410.03 446.539C1410.95 447.047 1411.66 447.805 1412.17 448.812C1412.68 449.82 1412.93 451.066 1412.93 452.551V464H1409.43V452.973C1409.43 451.668 1409.09 450.648 1408.41 449.914C1407.73 449.172 1406.8 448.801 1405.61 448.801C1404.8 448.801 1404.07 448.977 1403.44 449.328C1402.82 449.68 1402.32 450.195 1401.95 450.875C1401.59 451.547 1401.41 452.359 1401.41 453.312ZM1420.87 464.398C1419.73 464.398 1418.7 464.188 1417.78 463.766C1416.85 463.336 1416.12 462.715 1415.58 461.902C1415.05 461.09 1414.79 460.094 1414.79 458.914C1414.79 457.898 1414.98 457.062 1415.37 456.406C1415.76 455.75 1416.29 455.23 1416.96 454.848C1417.62 454.465 1418.36 454.176 1419.18 453.98C1420 453.785 1420.84 453.637 1421.69 453.535C1422.77 453.41 1423.64 453.309 1424.32 453.23C1424.99 453.145 1425.48 453.008 1425.78 452.82C1426.08 452.633 1426.24 452.328 1426.24 451.906V451.824C1426.24 450.801 1425.95 450.008 1425.37 449.445C1424.8 448.883 1423.95 448.602 1422.82 448.602C1421.64 448.602 1420.71 448.863 1420.03 449.387C1419.35 449.902 1418.89 450.477 1418.63 451.109L1415.34 450.359C1415.73 449.266 1416.3 448.383 1417.05 447.711C1417.81 447.031 1418.68 446.539 1419.66 446.234C1420.65 445.922 1421.68 445.766 1422.77 445.766C1423.49 445.766 1424.25 445.852 1425.05 446.023C1425.87 446.187 1426.62 446.492 1427.33 446.937C1428.04 447.383 1428.62 448.02 1429.07 448.848C1429.53 449.668 1429.75 450.734 1429.75 452.047V464H1426.33V461.539H1426.19C1425.96 461.992 1425.62 462.437 1425.17 462.875C1424.72 463.312 1424.14 463.676 1423.42 463.965C1422.71 464.254 1421.86 464.398 1420.87 464.398ZM1421.63 461.586C1422.6 461.586 1423.43 461.395 1424.12 461.012C1424.81 460.629 1425.34 460.129 1425.7 459.512C1426.07 458.887 1426.25 458.219 1426.25 457.508V455.187C1426.12 455.312 1425.88 455.43 1425.52 455.539C1425.17 455.641 1424.77 455.73 1424.32 455.809C1423.86 455.879 1423.42 455.945 1422.99 456.008C1422.56 456.062 1422.2 456.109 1421.91 456.148C1421.23 456.234 1420.61 456.379 1420.05 456.582C1419.5 456.785 1419.05 457.078 1418.71 457.461C1418.39 457.836 1418.22 458.336 1418.22 458.961C1418.22 459.828 1418.54 460.484 1419.18 460.93C1419.82 461.367 1420.64 461.586 1421.63 461.586ZM1435.92 440V464H1432.42V440H1435.92Z" fill="white"/>
<path d="M960 400C960 397.878 961.317 395.843 963.661 394.343C966.005 392.843 969.185 392 972.5 392H1197.5C1200.82 392 1203.99 392.843 1206.34 394.343C1208.68 395.843 1210 397.878 1210 400V504C1210 506.122 1208.68 508.157 1206.34 509.657C1203.99 511.157 1200.82 512 1197.5 512H972.5C969.185 512 966.005 511.157 963.661 509.657C961.317 508.157 960 506.122 960 504V400Z" fill="#4CA2FF"/>
<path d="M1027.64 464V440H1031.26V460.883H1042.13V464H1027.64ZM1049.22 464.398C1048.08 464.398 1047.05 464.188 1046.13 463.766C1045.21 463.336 1044.47 462.715 1043.94 461.902C1043.4 461.09 1043.14 460.094 1043.14 458.914C1043.14 457.898 1043.33 457.062 1043.72 456.406C1044.12 455.75 1044.64 455.23 1045.31 454.848C1045.97 454.465 1046.71 454.176 1047.53 453.98C1048.35 453.785 1049.19 453.637 1050.04 453.535C1051.12 453.41 1051.99 453.309 1052.67 453.23C1053.34 453.145 1053.83 453.008 1054.13 452.82C1054.44 452.633 1054.59 452.328 1054.59 451.906V451.824C1054.59 450.801 1054.3 450.008 1053.72 449.445C1053.15 448.883 1052.3 448.602 1051.17 448.602C1049.99 448.602 1049.06 448.863 1048.38 449.387C1047.71 449.902 1047.24 450.477 1046.98 451.109L1043.69 450.359C1044.08 449.266 1044.65 448.383 1045.4 447.711C1046.16 447.031 1047.03 446.539 1048.01 446.234C1049 445.922 1050.03 445.766 1051.12 445.766C1051.84 445.766 1052.6 445.852 1053.4 446.023C1054.22 446.187 1054.97 446.492 1055.68 446.937C1056.39 447.383 1056.97 448.02 1057.42 448.848C1057.88 449.668 1058.1 450.734 1058.1 452.047V464H1054.68V461.539H1054.54C1054.31 461.992 1053.97 462.437 1053.52 462.875C1053.07 463.312 1052.49 463.676 1051.78 463.965C1051.06 464.254 1050.21 464.398 1049.22 464.398ZM1049.98 461.586C1050.95 461.586 1051.78 461.395 1052.47 461.012C1053.16 460.629 1053.69 460.129 1054.05 459.512C1054.42 458.887 1054.6 458.219 1054.6 457.508V455.187C1054.47 455.312 1054.23 455.43 1053.87 455.539C1053.52 455.641 1053.12 455.73 1052.67 455.809C1052.21 455.879 1051.77 455.945 1051.34 456.008C1050.91 456.062 1050.55 456.109 1050.26 456.148C1049.58 456.234 1048.96 456.379 1048.4 456.582C1047.85 456.785 1047.4 457.078 1047.06 457.461C1046.74 457.836 1046.57 458.336 1046.57 458.961C1046.57 459.828 1046.89 460.484 1047.53 460.93C1048.17 461.367 1048.99 461.586 1049.98 461.586ZM1074.26 450.395L1071.08 450.957C1070.95 450.551 1070.74 450.164 1070.45 449.797C1070.17 449.43 1069.79 449.129 1069.3 448.895C1068.82 448.66 1068.21 448.543 1067.49 448.543C1066.49 448.543 1065.67 448.766 1065 449.211C1064.34 449.648 1064 450.215 1064 450.91C1064 451.512 1064.23 451.996 1064.67 452.363C1065.12 452.73 1065.84 453.031 1066.83 453.266L1069.69 453.922C1071.34 454.305 1072.58 454.895 1073.39 455.691C1074.2 456.488 1074.61 457.523 1074.61 458.797C1074.61 459.875 1074.3 460.836 1073.67 461.68C1073.06 462.516 1072.19 463.172 1071.08 463.648C1069.98 464.125 1068.7 464.363 1067.25 464.363C1065.24 464.363 1063.59 463.934 1062.32 463.074C1061.04 462.207 1060.26 460.977 1059.97 459.383L1063.36 458.867C1063.57 459.75 1064 460.418 1064.66 460.871C1065.32 461.316 1066.17 461.539 1067.23 461.539C1068.38 461.539 1069.29 461.301 1069.98 460.824C1070.67 460.34 1071.01 459.75 1071.01 459.055C1071.01 458.492 1070.8 458.02 1070.38 457.637C1069.97 457.254 1069.33 456.965 1068.47 456.77L1065.42 456.102C1063.74 455.719 1062.5 455.109 1061.7 454.273C1060.9 453.437 1060.5 452.379 1060.5 451.098C1060.5 450.035 1060.8 449.105 1061.39 448.309C1061.99 447.512 1062.81 446.891 1063.85 446.445C1064.9 445.992 1066.1 445.766 1067.45 445.766C1069.4 445.766 1070.93 446.187 1072.04 447.031C1073.16 447.867 1073.9 448.988 1074.26 450.395ZM1084.87 446V448.812H1075.03V446H1084.87ZM1077.67 441.687H1081.17V458.715C1081.17 459.395 1081.28 459.906 1081.48 460.25C1081.68 460.586 1081.94 460.816 1082.26 460.941C1082.59 461.059 1082.95 461.117 1083.33 461.117C1083.61 461.117 1083.86 461.098 1084.07 461.059C1084.28 461.02 1084.44 460.988 1084.56 460.965L1085.19 463.859C1084.99 463.937 1084.7 464.016 1084.33 464.094C1083.95 464.18 1083.48 464.227 1082.92 464.234C1082 464.25 1081.14 464.086 1080.34 463.742C1079.54 463.398 1078.9 462.867 1078.41 462.148C1077.92 461.43 1077.67 460.527 1077.67 459.441V441.687ZM1113.69 447.805H1110.03C1109.89 447.023 1109.63 446.336 1109.25 445.742C1108.87 445.148 1108.4 444.645 1107.84 444.23C1107.29 443.816 1106.67 443.504 1105.98 443.293C1105.3 443.082 1104.58 442.977 1103.81 442.977C1102.43 442.977 1101.19 443.324 1100.1 444.02C1099.01 444.715 1098.15 445.734 1097.52 447.078C1096.89 448.422 1096.58 450.062 1096.58 452C1096.58 453.953 1096.89 455.602 1097.52 456.945C1098.15 458.289 1099.01 459.305 1100.11 459.992C1101.2 460.68 1102.43 461.023 1103.8 461.023C1104.56 461.023 1105.28 460.922 1105.96 460.719C1106.64 460.508 1107.26 460.199 1107.82 459.793C1108.37 459.387 1108.84 458.891 1109.22 458.305C1109.62 457.711 1109.88 457.031 1110.03 456.266L1113.69 456.277C1113.49 457.457 1113.12 458.543 1112.55 459.535C1112 460.52 1111.28 461.371 1110.41 462.09C1109.54 462.801 1108.55 463.352 1107.43 463.742C1106.31 464.133 1105.1 464.328 1103.78 464.328C1101.7 464.328 1099.85 463.836 1098.22 462.852C1096.6 461.859 1095.31 460.441 1094.38 458.598C1093.45 456.754 1092.98 454.555 1092.98 452C1092.98 449.437 1093.45 447.238 1094.39 445.402C1095.33 443.559 1096.61 442.145 1098.23 441.16C1099.86 440.168 1101.71 439.672 1103.78 439.672C1105.05 439.672 1106.24 439.855 1107.34 440.223C1108.45 440.582 1109.44 441.113 1110.33 441.816C1111.21 442.512 1111.94 443.363 1112.52 444.371C1113.1 445.371 1113.49 446.516 1113.69 447.805ZM1120.98 464.398C1119.84 464.398 1118.81 464.188 1117.89 463.766C1116.96 463.336 1116.23 462.715 1115.69 461.902C1115.16 461.09 1114.9 460.094 1114.9 458.914C1114.9 457.898 1115.09 457.062 1115.48 456.406C1115.87 455.75 1116.4 455.23 1117.07 454.848C1117.73 454.465 1118.47 454.176 1119.29 453.98C1120.11 453.785 1120.95 453.637 1121.8 453.535C1122.88 453.41 1123.75 453.309 1124.42 453.23C1125.1 453.145 1125.58 453.008 1125.89 452.82C1126.19 452.633 1126.35 452.328 1126.35 451.906V451.824C1126.35 450.801 1126.06 450.008 1125.48 449.445C1124.91 448.883 1124.06 448.602 1122.92 448.602C1121.75 448.602 1120.82 448.863 1120.14 449.387C1119.46 449.902 1119 450.477 1118.74 451.109L1115.45 450.359C1115.84 449.266 1116.41 448.383 1117.16 447.711C1117.92 447.031 1118.79 446.539 1119.77 446.234C1120.76 445.922 1121.79 445.766 1122.88 445.766C1123.6 445.766 1124.36 445.852 1125.16 446.023C1125.98 446.187 1126.73 446.492 1127.44 446.937C1128.15 447.383 1128.73 448.02 1129.18 448.848C1129.64 449.668 1129.86 450.734 1129.86 452.047V464H1126.44V461.539H1126.3C1126.07 461.992 1125.73 462.437 1125.28 462.875C1124.83 463.312 1124.25 463.676 1123.53 463.965C1122.82 464.254 1121.97 464.398 1120.98 464.398ZM1121.74 461.586C1122.71 461.586 1123.54 461.395 1124.23 461.012C1124.92 460.629 1125.45 460.129 1125.81 459.512C1126.17 458.887 1126.36 458.219 1126.36 457.508V455.187C1126.23 455.312 1125.99 455.43 1125.63 455.539C1125.28 455.641 1124.88 455.73 1124.42 455.809C1123.97 455.879 1123.53 455.945 1123.1 456.008C1122.67 456.062 1122.31 456.109 1122.02 456.148C1121.34 456.234 1120.72 456.379 1120.16 456.582C1119.6 456.785 1119.16 457.078 1118.82 457.461C1118.5 457.836 1118.33 458.336 1118.33 458.961C1118.33 459.828 1118.65 460.484 1119.29 460.93C1119.93 461.367 1120.75 461.586 1121.74 461.586ZM1136.03 440V464H1132.53V440H1136.03ZM1142.25 440V464H1138.75V440H1142.25Z" fill="white"/>
<path d="M1092.5 452H1092V451H1092.5V452Z" fill="#011829" stroke="#011829" stroke-width="0.05"/>
<path d="M640 400C640 397.878 641.317 395.843 643.661 394.343C646.005 392.843 649.185 392 652.5 392H877.5C880.815 392 883.995 392.843 886.339 394.343C888.683 395.843 890 397.878 890 400V504C890 506.122 888.683 508.157 886.339 509.657C883.995 511.157 880.815 512 877.5 512H652.5C649.185 512 646.005 511.157 643.661 509.657C641.317 508.157 640 506.122 640 504V400Z" fill="#4CA2FF"/>
<path d="M715.637 464V440H724.191C726.051 440 727.594 440.32 728.82 440.961C730.055 441.602 730.977 442.488 731.586 443.621C732.195 444.746 732.5 446.047 732.5 447.523C732.5 448.992 732.191 450.285 731.574 451.402C730.965 452.512 730.043 453.375 728.809 453.992C727.582 454.609 726.039 454.918 724.18 454.918H717.699V451.801H723.852C725.023 451.801 725.977 451.633 726.711 451.297C727.453 450.961 727.996 450.473 728.34 449.832C728.684 449.191 728.855 448.422 728.855 447.523C728.855 446.617 728.68 445.832 728.328 445.168C727.984 444.504 727.441 443.996 726.699 443.645C725.965 443.285 725 443.105 723.805 443.105H719.258V464H715.637ZM727.484 453.172L733.414 464H729.289L723.477 453.172H727.484ZM742.157 464.363C740.384 464.363 738.856 463.984 737.575 463.227C736.302 462.461 735.317 461.387 734.622 460.004C733.935 458.613 733.591 456.984 733.591 455.117C733.591 453.273 733.935 451.648 734.622 450.242C735.317 448.836 736.286 447.738 737.528 446.949C738.778 446.16 740.239 445.766 741.911 445.766C742.927 445.766 743.911 445.934 744.864 446.27C745.817 446.605 746.673 447.133 747.431 447.852C748.188 448.57 748.786 449.504 749.224 450.652C749.661 451.793 749.88 453.18 749.88 454.812V456.055H735.571V453.43H746.446C746.446 452.508 746.259 451.691 745.884 450.98C745.509 450.262 744.981 449.695 744.302 449.281C743.63 448.867 742.841 448.66 741.935 448.66C740.95 448.66 740.091 448.902 739.356 449.387C738.63 449.863 738.067 450.488 737.669 451.262C737.278 452.027 737.083 452.859 737.083 453.758V455.809C737.083 457.012 737.294 458.035 737.716 458.879C738.146 459.723 738.743 460.367 739.509 460.812C740.274 461.25 741.169 461.469 742.192 461.469C742.856 461.469 743.462 461.375 744.009 461.187C744.556 460.992 745.028 460.703 745.427 460.32C745.825 459.937 746.13 459.465 746.341 458.902L749.657 459.5C749.392 460.477 748.915 461.332 748.228 462.066C747.548 462.793 746.692 463.359 745.661 463.766C744.638 464.164 743.47 464.363 742.157 464.363ZM766.65 446L760.123 464H756.373L749.834 446H753.596L758.154 459.852H758.342L762.889 446H766.65ZM767.943 464V446H771.447V464H767.943ZM769.713 443.223C769.104 443.223 768.58 443.02 768.143 442.613C767.713 442.199 767.498 441.707 767.498 441.137C767.498 440.559 767.713 440.066 768.143 439.66C768.58 439.246 769.104 439.039 769.713 439.039C770.322 439.039 770.842 439.246 771.271 439.66C771.709 440.066 771.928 440.559 771.928 441.137C771.928 441.707 771.709 442.199 771.271 442.613C770.842 443.02 770.322 443.223 769.713 443.223ZM781.919 464.363C780.146 464.363 778.618 463.984 777.337 463.227C776.063 462.461 775.079 461.387 774.384 460.004C773.696 458.613 773.353 456.984 773.353 455.117C773.353 453.273 773.696 451.648 774.384 450.242C775.079 448.836 776.048 447.738 777.29 446.949C778.54 446.16 780.001 445.766 781.673 445.766C782.688 445.766 783.673 445.934 784.626 446.27C785.579 446.605 786.435 447.133 787.192 447.852C787.95 448.57 788.548 449.504 788.985 450.652C789.423 451.793 789.642 453.18 789.642 454.812V456.055H775.333V453.43H786.208C786.208 452.508 786.021 451.691 785.646 450.98C785.271 450.262 784.743 449.695 784.063 449.281C783.392 448.867 782.603 448.66 781.696 448.66C780.712 448.66 779.853 448.902 779.118 449.387C778.392 449.863 777.829 450.488 777.431 451.262C777.04 452.027 776.845 452.859 776.845 453.758V455.809C776.845 457.012 777.056 458.035 777.478 458.879C777.907 459.723 778.505 460.367 779.271 460.812C780.036 461.25 780.931 461.469 781.954 461.469C782.618 461.469 783.224 461.375 783.771 461.187C784.317 460.992 784.79 460.703 785.188 460.32C785.587 459.937 785.892 459.465 786.103 458.902L789.419 459.5C789.153 460.477 788.677 461.332 787.989 462.066C787.31 462.793 786.454 463.359 785.423 463.766C784.399 464.164 783.231 464.363 781.919 464.363ZM795.399 464L790.103 446H793.724L797.251 459.219H797.427L800.966 446H804.587L808.103 459.16H808.278L811.782 446H815.403L810.118 464H806.544L802.888 451.004H802.618L798.962 464H795.399Z" fill="white"/>
<path d="M790.5 452H790V451H790.5V452Z" fill="#011829" stroke="#011829" stroke-width="0.05"/>
<path d="M320 400C320 397.878 321.317 395.843 323.661 394.343C326.005 392.843 329.185 392 332.5 392H557.5C560.815 392 563.995 392.843 566.339 394.343C568.683 395.843 570 397.878 570 400V504C570 506.122 568.683 508.157 566.339 509.657C563.995 511.157 560.815 512 557.5 512H332.5C329.185 512 326.005 511.157 323.661 509.657C321.317 508.157 320 506.122 320 504V400Z" fill="#4CA2FF"/>
<path d="M419.406 464H411.637V440H419.652C422.004 440 424.023 440.48 425.711 441.441C427.398 442.395 428.691 443.766 429.59 445.555C430.496 447.336 430.949 449.473 430.949 451.965C430.949 454.465 430.492 456.613 429.578 458.41C428.672 460.207 427.359 461.59 425.641 462.559C423.922 463.52 421.844 464 419.406 464ZM415.258 460.836H419.207C421.035 460.836 422.555 460.492 423.766 459.805C424.977 459.109 425.883 458.105 426.484 456.793C427.086 455.473 427.387 453.863 427.387 451.965C427.387 450.082 427.086 448.484 426.484 447.172C425.891 445.859 425.004 444.863 423.824 444.184C422.645 443.504 421.18 443.164 419.43 443.164H415.258V460.836ZM433.171 464V446H436.558V448.859H436.745C437.073 447.891 437.651 447.129 438.479 446.574C439.315 446.012 440.261 445.73 441.315 445.73C441.534 445.73 441.792 445.738 442.089 445.754C442.394 445.77 442.632 445.789 442.804 445.812V449.164C442.663 449.125 442.413 449.082 442.054 449.035C441.694 448.98 441.335 448.953 440.976 448.953C440.147 448.953 439.409 449.129 438.761 449.48C438.12 449.824 437.612 450.305 437.237 450.922C436.862 451.531 436.675 452.227 436.675 453.008V464H433.171ZM448.913 464.398C447.772 464.398 446.741 464.188 445.819 463.766C444.897 463.336 444.167 462.715 443.628 461.902C443.097 461.09 442.831 460.094 442.831 458.914C442.831 457.898 443.026 457.062 443.417 456.406C443.808 455.75 444.335 455.23 444.999 454.848C445.663 454.465 446.405 454.176 447.226 453.98C448.046 453.785 448.882 453.637 449.733 453.535C450.812 453.41 451.687 453.309 452.358 453.23C453.03 453.145 453.519 453.008 453.823 452.82C454.128 452.633 454.28 452.328 454.28 451.906V451.824C454.28 450.801 453.991 450.008 453.413 449.445C452.843 448.883 451.991 448.602 450.858 448.602C449.679 448.602 448.749 448.863 448.069 449.387C447.397 449.902 446.933 450.477 446.675 451.109L443.382 450.359C443.772 449.266 444.343 448.383 445.093 447.711C445.851 447.031 446.722 446.539 447.706 446.234C448.69 445.922 449.726 445.766 450.812 445.766C451.53 445.766 452.292 445.852 453.097 446.023C453.909 446.187 454.667 446.492 455.37 446.937C456.081 447.383 456.663 448.02 457.116 448.848C457.569 449.668 457.796 450.734 457.796 452.047V464H454.374V461.539H454.233C454.007 461.992 453.667 462.437 453.214 462.875C452.761 463.312 452.179 463.676 451.468 463.965C450.757 464.254 449.905 464.398 448.913 464.398ZM449.675 461.586C450.644 461.586 451.472 461.395 452.159 461.012C452.854 460.629 453.382 460.129 453.741 459.512C454.108 458.887 454.292 458.219 454.292 457.508V455.187C454.167 455.312 453.925 455.43 453.565 455.539C453.214 455.641 452.812 455.73 452.358 455.809C451.905 455.879 451.464 455.945 451.034 456.008C450.604 456.062 450.245 456.109 449.956 456.148C449.276 456.234 448.655 456.379 448.093 456.582C447.538 456.785 447.093 457.078 446.757 457.461C446.429 457.836 446.265 458.336 446.265 458.961C446.265 459.828 446.585 460.484 447.226 460.93C447.866 461.367 448.683 461.586 449.675 461.586ZM469.029 446V448.812H458.857V446H469.029ZM461.646 464V443.914C461.646 442.789 461.893 441.855 462.385 441.113C462.877 440.363 463.529 439.805 464.342 439.437C465.154 439.062 466.037 438.875 466.99 438.875C467.693 438.875 468.295 438.934 468.795 439.051C469.295 439.16 469.666 439.262 469.908 439.355L469.088 442.191C468.924 442.145 468.713 442.09 468.455 442.027C468.197 441.957 467.885 441.922 467.518 441.922C466.666 441.922 466.057 442.133 465.689 442.555C465.33 442.977 465.15 443.586 465.15 444.383V464H461.646ZM479.047 446V448.812H469.215V446H479.047ZM471.852 441.687H475.355V458.715C475.355 459.395 475.457 459.906 475.66 460.25C475.863 460.586 476.125 460.816 476.445 460.941C476.773 461.059 477.129 461.117 477.512 461.117C477.793 461.117 478.039 461.098 478.25 461.059C478.461 461.02 478.625 460.988 478.742 460.965L479.375 463.859C479.172 463.937 478.883 464.016 478.508 464.094C478.133 464.18 477.664 464.227 477.102 464.234C476.18 464.25 475.32 464.086 474.523 463.742C473.727 463.398 473.082 462.867 472.59 462.148C472.098 461.43 471.852 460.527 471.852 459.441V441.687Z" fill="white"/>
<path d="M639 198.535C639 196.405 640.317 194.361 642.661 192.855C645.005 191.348 648.185 190.502 651.5 190.502H876.5C879.815 190.502 882.995 191.348 885.339 192.855C887.683 194.361 889 196.405 889 198.535V302.967C889 305.097 887.683 307.141 885.339 308.647C882.995 310.154 879.815 311 876.5 311H651.5C648.185 311 645.005 310.154 642.661 308.647C640.317 307.141 639 305.097 639 302.967V198.535Z" fill="#C9405A"/>
<path d="M714.727 244.981C714.602 243.872 714.086 243.012 713.18 242.403C712.273 241.786 711.133 241.477 709.758 241.477C708.773 241.477 707.922 241.633 707.203 241.946C706.484 242.251 705.926 242.672 705.527 243.212C705.137 243.743 704.941 244.348 704.941 245.028C704.941 245.598 705.074 246.09 705.34 246.504C705.613 246.919 705.969 247.266 706.406 247.547C706.852 247.821 707.328 248.051 707.836 248.239C708.344 248.419 708.832 248.567 709.301 248.684L711.645 249.294C712.41 249.481 713.195 249.735 714 250.055C714.805 250.376 715.551 250.797 716.238 251.321C716.926 251.844 717.48 252.493 717.902 253.266C718.332 254.04 718.547 254.965 718.547 256.044C718.547 257.403 718.195 258.61 717.492 259.665C716.797 260.719 715.785 261.551 714.457 262.161C713.137 262.77 711.539 263.075 709.664 263.075C707.867 263.075 706.313 262.79 705 262.219C703.688 261.649 702.66 260.84 701.918 259.794C701.176 258.739 700.766 257.489 700.688 256.044H704.32C704.391 256.911 704.672 257.633 705.164 258.212C705.664 258.782 706.301 259.208 707.074 259.489C707.855 259.762 708.711 259.899 709.641 259.899C710.664 259.899 711.574 259.739 712.371 259.419C713.176 259.09 713.809 258.637 714.27 258.059C714.73 257.473 714.961 256.79 714.961 256.008C714.961 255.297 714.758 254.715 714.352 254.262C713.953 253.809 713.41 253.434 712.723 253.137C712.043 252.84 711.273 252.579 710.414 252.352L707.578 251.579C705.656 251.055 704.133 250.286 703.008 249.27C701.891 248.254 701.332 246.911 701.332 245.239C701.332 243.856 701.707 242.649 702.457 241.618C703.207 240.587 704.223 239.786 705.504 239.215C706.785 238.637 708.23 238.348 709.84 238.348C711.465 238.348 712.898 238.633 714.141 239.204C715.391 239.774 716.375 240.559 717.094 241.559C717.813 242.551 718.188 243.692 718.219 244.981H714.727ZM728.995 244.676V247.489H719.163V244.676H728.995ZM721.8 240.364H725.304V257.391C725.304 258.071 725.405 258.583 725.608 258.926C725.812 259.262 726.073 259.493 726.394 259.618C726.722 259.735 727.077 259.794 727.46 259.794C727.741 259.794 727.987 259.774 728.198 259.735C728.409 259.696 728.573 259.665 728.69 259.641L729.323 262.536C729.12 262.614 728.831 262.692 728.456 262.77C728.081 262.856 727.612 262.903 727.05 262.911C726.128 262.926 725.269 262.762 724.472 262.419C723.675 262.075 723.03 261.544 722.538 260.825C722.046 260.106 721.8 259.204 721.8 258.118V240.364ZM736.109 263.075C734.969 263.075 733.938 262.864 733.016 262.442C732.094 262.012 731.363 261.391 730.824 260.579C730.293 259.766 730.027 258.77 730.027 257.59C730.027 256.575 730.223 255.739 730.613 255.083C731.004 254.426 731.531 253.907 732.195 253.524C732.859 253.141 733.602 252.852 734.422 252.657C735.242 252.462 736.078 252.313 736.93 252.212C738.008 252.087 738.883 251.985 739.555 251.907C740.227 251.821 740.715 251.684 741.02 251.497C741.324 251.309 741.477 251.004 741.477 250.583V250.501C741.477 249.477 741.188 248.684 740.609 248.122C740.039 247.559 739.188 247.278 738.055 247.278C736.875 247.278 735.945 247.54 735.266 248.063C734.594 248.579 734.129 249.153 733.871 249.786L730.578 249.036C730.969 247.942 731.539 247.059 732.289 246.387C733.047 245.708 733.918 245.215 734.902 244.911C735.887 244.598 736.922 244.442 738.008 244.442C738.727 244.442 739.488 244.528 740.293 244.7C741.105 244.864 741.863 245.169 742.566 245.614C743.277 246.059 743.859 246.696 744.313 247.524C744.766 248.344 744.992 249.411 744.992 250.723V262.676H741.57V260.215H741.43C741.203 260.669 740.863 261.114 740.41 261.551C739.957 261.989 739.375 262.352 738.664 262.641C737.953 262.93 737.102 263.075 736.109 263.075ZM736.871 260.262C737.84 260.262 738.668 260.071 739.355 259.688C740.051 259.305 740.578 258.805 740.938 258.188C741.305 257.563 741.488 256.895 741.488 256.184V253.864C741.363 253.989 741.121 254.106 740.762 254.215C740.41 254.317 740.008 254.407 739.555 254.485C739.102 254.555 738.66 254.622 738.23 254.684C737.801 254.739 737.441 254.786 737.152 254.825C736.473 254.911 735.852 255.055 735.289 255.258C734.734 255.462 734.289 255.754 733.953 256.137C733.625 256.512 733.461 257.012 733.461 257.637C733.461 258.504 733.781 259.161 734.422 259.606C735.063 260.044 735.879 260.262 736.871 260.262ZM755.206 269.801C753.776 269.801 752.546 269.614 751.515 269.239C750.491 268.864 749.655 268.368 749.007 267.751C748.358 267.133 747.874 266.458 747.554 265.723L750.565 264.481C750.776 264.825 751.058 265.188 751.409 265.571C751.769 265.962 752.253 266.294 752.862 266.567C753.479 266.84 754.272 266.977 755.241 266.977C756.569 266.977 757.667 266.653 758.534 266.004C759.401 265.364 759.835 264.34 759.835 262.934V259.395H759.612C759.401 259.778 759.097 260.204 758.698 260.672C758.308 261.141 757.769 261.547 757.081 261.891C756.394 262.235 755.499 262.407 754.397 262.407C752.976 262.407 751.694 262.075 750.554 261.411C749.421 260.739 748.522 259.751 747.858 258.446C747.202 257.133 746.874 255.52 746.874 253.606C746.874 251.692 747.198 250.051 747.847 248.684C748.503 247.317 749.401 246.27 750.542 245.544C751.683 244.809 752.976 244.442 754.421 244.442C755.538 244.442 756.44 244.629 757.128 245.004C757.815 245.372 758.351 245.801 758.733 246.294C759.124 246.786 759.425 247.219 759.636 247.594H759.894V244.676H763.327V263.075C763.327 264.622 762.968 265.891 762.249 266.883C761.53 267.876 760.558 268.61 759.331 269.087C758.112 269.563 756.737 269.801 755.206 269.801ZM755.171 259.501C756.179 259.501 757.03 259.266 757.726 258.797C758.429 258.321 758.96 257.641 759.319 256.758C759.687 255.868 759.87 254.801 759.87 253.559C759.87 252.348 759.69 251.282 759.331 250.36C758.972 249.438 758.444 248.719 757.749 248.204C757.054 247.68 756.194 247.419 755.171 247.419C754.116 247.419 753.237 247.692 752.534 248.239C751.831 248.778 751.3 249.512 750.94 250.442C750.589 251.372 750.413 252.411 750.413 253.559C750.413 254.739 750.593 255.774 750.952 256.665C751.312 257.555 751.843 258.251 752.546 258.751C753.257 259.251 754.132 259.501 755.171 259.501ZM769.53 251.989V262.676H766.026V244.676H769.39V247.606H769.612C770.026 246.653 770.675 245.887 771.558 245.309C772.448 244.731 773.569 244.442 774.921 244.442C776.147 244.442 777.222 244.7 778.144 245.215C779.065 245.723 779.78 246.481 780.288 247.489C780.796 248.497 781.05 249.743 781.05 251.227V262.676H777.546V251.649C777.546 250.344 777.206 249.325 776.526 248.59C775.847 247.848 774.913 247.477 773.726 247.477C772.913 247.477 772.19 247.653 771.558 248.004C770.933 248.356 770.437 248.872 770.069 249.551C769.71 250.223 769.53 251.036 769.53 251.989ZM788.987 263.075C787.847 263.075 786.815 262.864 785.894 262.442C784.972 262.012 784.241 261.391 783.702 260.579C783.171 259.766 782.905 258.77 782.905 257.59C782.905 256.575 783.101 255.739 783.491 255.083C783.882 254.426 784.409 253.907 785.073 253.524C785.737 253.141 786.479 252.852 787.3 252.657C788.12 252.462 788.956 252.313 789.808 252.212C790.886 252.087 791.761 251.985 792.433 251.907C793.104 251.821 793.593 251.684 793.897 251.497C794.202 251.309 794.354 251.004 794.354 250.583V250.501C794.354 249.477 794.065 248.684 793.487 248.122C792.917 247.559 792.065 247.278 790.933 247.278C789.753 247.278 788.823 247.54 788.144 248.063C787.472 248.579 787.007 249.153 786.749 249.786L783.456 249.036C783.847 247.942 784.417 247.059 785.167 246.387C785.925 245.708 786.796 245.215 787.78 244.911C788.765 244.598 789.8 244.442 790.886 244.442C791.604 244.442 792.366 244.528 793.171 244.7C793.983 244.864 794.741 245.169 795.444 245.614C796.155 246.059 796.737 246.696 797.19 247.524C797.644 248.344 797.87 249.411 797.87 250.723V262.676H794.448V260.215H794.308C794.081 260.669 793.741 261.114 793.288 261.551C792.835 261.989 792.253 262.352 791.542 262.641C790.831 262.93 789.979 263.075 788.987 263.075ZM789.749 260.262C790.718 260.262 791.546 260.071 792.233 259.688C792.929 259.305 793.456 258.805 793.815 258.188C794.183 257.563 794.366 256.895 794.366 256.184V253.864C794.241 253.989 793.999 254.106 793.64 254.215C793.288 254.317 792.886 254.407 792.433 254.485C791.979 254.555 791.538 254.622 791.108 254.684C790.679 254.739 790.319 254.786 790.03 254.825C789.351 254.911 788.729 255.055 788.167 255.258C787.612 255.462 787.167 255.754 786.831 256.137C786.503 256.512 786.339 257.012 786.339 257.637C786.339 258.504 786.659 259.161 787.3 259.606C787.94 260.044 788.757 260.262 789.749 260.262ZM804.041 251.989V262.676H800.537V244.676H803.9V247.606H804.123C804.537 246.653 805.186 245.887 806.068 245.309C806.959 244.731 808.08 244.442 809.432 244.442C810.658 244.442 811.732 244.7 812.654 245.215C813.576 245.723 814.291 246.481 814.799 247.489C815.307 248.497 815.561 249.743 815.561 251.227V262.676H812.057V251.649C812.057 250.344 811.717 249.325 811.037 248.59C810.357 247.848 809.424 247.477 808.236 247.477C807.424 247.477 806.701 247.653 806.068 248.004C805.443 248.356 804.947 248.872 804.58 249.551C804.221 250.223 804.041 251.036 804.041 251.989ZM826.662 244.676V247.489H816.83V244.676H826.662ZM819.467 240.364H822.971V257.391C822.971 258.071 823.072 258.583 823.275 258.926C823.479 259.262 823.74 259.493 824.061 259.618C824.389 259.735 824.744 259.794 825.127 259.794C825.408 259.794 825.654 259.774 825.865 259.735C826.076 259.696 826.24 259.665 826.357 259.641L826.99 262.536C826.787 262.614 826.498 262.692 826.123 262.77C825.748 262.856 825.279 262.903 824.717 262.911C823.795 262.926 822.936 262.762 822.139 262.419C821.342 262.075 820.697 261.544 820.205 260.825C819.713 260.106 819.467 259.204 819.467 258.118V240.364Z" fill="white"/>
<path d="M765 190.502H764V190H765V190.502Z" fill="#011829" stroke="#011829" stroke-width="0.05"/>
<path d="M639 8C639 5.87827 640.317 3.84344 642.661 2.34315C645.005 0.842856 648.185 0 651.5 0H876.5C879.815 0 882.995 0.842856 885.339 2.34315C887.683 3.84344 889 5.87827 889 8V112C889 114.122 887.683 116.157 885.339 117.657C882.995 119.157 879.815 120 876.5 120H651.5C648.185 120 645.005 119.157 642.661 117.657C640.317 116.157 639 114.122 639 112V8Z" fill="#C9405A"/>
<path d="M693.336 72L686.68 48H690.488L695.164 66.5859H695.387L700.25 48H704.023L708.887 66.5977H709.109L713.773 48H717.594L710.926 72H707.281L702.23 54.0234H702.043L696.992 72H693.336ZM718.614 72V54H722.118V72H718.614ZM720.384 51.2227C719.774 51.2227 719.251 51.0195 718.813 50.6133C718.384 50.1992 718.169 49.707 718.169 49.1367C718.169 48.5586 718.384 48.0664 718.813 47.6602C719.251 47.2461 719.774 47.0391 720.384 47.0391C720.993 47.0391 721.513 47.2461 721.942 47.6602C722.38 48.0664 722.599 48.5586 722.599 49.1367C722.599 49.707 722.38 50.1992 721.942 50.6133C721.513 51.0195 720.993 51.2227 720.384 51.2227ZM733.234 54V56.8125H723.402V54H733.234ZM726.039 49.6875H729.543V66.7148C729.543 67.3945 729.645 67.9062 729.848 68.25C730.051 68.5859 730.313 68.8164 730.633 68.9414C730.961 69.0586 731.316 69.1172 731.699 69.1172C731.98 69.1172 732.227 69.0977 732.438 69.0586C732.648 69.0195 732.813 68.9883 732.93 68.9648L733.562 71.8594C733.359 71.9375 733.07 72.0156 732.695 72.0938C732.32 72.1797 731.852 72.2266 731.289 72.2344C730.367 72.25 729.508 72.0859 728.711 71.7422C727.914 71.3984 727.27 70.8672 726.777 70.1484C726.285 69.4297 726.039 68.5273 726.039 67.4414V49.6875ZM739.001 61.3125V72H735.497V48H738.954V56.9297H739.177C739.599 55.9609 740.243 55.1914 741.11 54.6211C741.978 54.0508 743.11 53.7656 744.509 53.7656C745.743 53.7656 746.821 54.0195 747.743 54.5273C748.673 55.0352 749.392 55.793 749.899 56.8008C750.415 57.8008 750.673 59.0508 750.673 60.5508V72H747.169V60.9727C747.169 59.6523 746.829 58.6289 746.149 57.9023C745.47 57.168 744.524 56.8008 743.313 56.8008C742.485 56.8008 741.743 56.9766 741.087 57.3281C740.438 57.6797 739.927 58.1953 739.552 58.875C739.185 59.5469 739.001 60.3594 739.001 61.3125ZM760.087 72.3516C758.634 72.3516 757.337 71.9805 756.196 71.2383C755.063 70.4883 754.173 69.4219 753.524 68.0391C752.884 66.6484 752.563 64.9805 752.563 63.0352C752.563 61.0898 752.888 59.4258 753.536 58.043C754.192 56.6602 755.091 55.6016 756.231 54.8672C757.372 54.1328 758.665 53.7656 760.11 53.7656C761.228 53.7656 762.126 53.9531 762.806 54.3281C763.493 54.6953 764.024 55.125 764.399 55.6172C764.782 56.1094 765.079 56.543 765.29 56.918H765.501V48H769.005V72H765.583V69.1992H765.29C765.079 69.582 764.774 70.0195 764.376 70.5117C763.985 71.0039 763.446 71.4336 762.759 71.8008C762.071 72.168 761.181 72.3516 760.087 72.3516ZM760.86 69.3633C761.868 69.3633 762.72 69.0977 763.415 68.5664C764.118 68.0273 764.649 67.2812 765.009 66.3281C765.376 65.375 765.56 64.2656 765.56 63C765.56 61.75 765.38 60.6562 765.021 59.7187C764.661 58.7812 764.134 58.0508 763.438 57.5273C762.743 57.0039 761.884 56.7422 760.86 56.7422C759.806 56.7422 758.927 57.0156 758.224 57.5625C757.521 58.1094 756.989 58.8555 756.63 59.8008C756.278 60.7461 756.103 61.8125 756.103 63C756.103 64.2031 756.282 65.2852 756.642 66.2461C757.001 67.207 757.532 67.9687 758.235 68.5312C758.946 69.0859 759.821 69.3633 760.86 69.3633ZM772.006 72V54H775.393V56.8594H775.58C775.908 55.8906 776.486 55.1289 777.314 54.5742C778.15 54.0117 779.096 53.7305 780.15 53.7305C780.369 53.7305 780.627 53.7383 780.924 53.7539C781.229 53.7695 781.467 53.7891 781.639 53.8125V57.1641C781.498 57.125 781.248 57.082 780.889 57.0352C780.529 56.9805 780.17 56.9531 779.811 56.9531C778.982 56.9531 778.244 57.1289 777.596 57.4805C776.955 57.8242 776.447 58.3047 776.072 58.9219C775.697 59.5312 775.51 60.2266 775.51 61.0078V72H772.006ZM787.748 72.3984C786.607 72.3984 785.576 72.1875 784.654 71.7656C783.732 71.3359 783.002 70.7148 782.463 69.9023C781.932 69.0898 781.666 68.0937 781.666 66.9141C781.666 65.8984 781.861 65.0625 782.252 64.4062C782.643 63.75 783.17 63.2305 783.834 62.8477C784.498 62.4648 785.24 62.1758 786.061 61.9805C786.881 61.7852 787.717 61.6367 788.568 61.5352C789.646 61.4102 790.521 61.3086 791.193 61.2305C791.865 61.1445 792.354 61.0078 792.658 60.8203C792.963 60.6328 793.115 60.3281 793.115 59.9062V59.8242C793.115 58.8008 792.826 58.0078 792.248 57.4453C791.678 56.8828 790.826 56.6016 789.693 56.6016C788.514 56.6016 787.584 56.8633 786.904 57.3867C786.232 57.9023 785.768 58.4766 785.51 59.1094L782.217 58.3594C782.607 57.2656 783.178 56.3828 783.928 55.7109C784.686 55.0312 785.557 54.5391 786.541 54.2344C787.525 53.9219 788.561 53.7656 789.646 53.7656C790.365 53.7656 791.127 53.8516 791.932 54.0234C792.744 54.1875 793.502 54.4922 794.205 54.9375C794.916 55.3828 795.498 56.0195 795.951 56.8477C796.404 57.668 796.631 58.7344 796.631 60.0469V72H793.209V69.5391H793.068C792.842 69.9922 792.502 70.4375 792.049 70.875C791.596 71.3125 791.014 71.6758 790.303 71.9648C789.592 72.2539 788.74 72.3984 787.748 72.3984ZM788.51 69.5859C789.479 69.5859 790.307 69.3945 790.994 69.0117C791.689 68.6289 792.217 68.1289 792.576 67.5117C792.943 66.8867 793.127 66.2187 793.127 65.5078V63.1875C793.002 63.3125 792.76 63.4297 792.4 63.5391C792.049 63.6406 791.646 63.7305 791.193 63.8086C790.74 63.8789 790.299 63.9453 789.869 64.0078C789.439 64.0625 789.08 64.1094 788.791 64.1484C788.111 64.2344 787.49 64.3789 786.928 64.582C786.373 64.7852 785.928 65.0781 785.592 65.4609C785.264 65.8359 785.1 66.3359 785.1 66.9609C785.1 67.8281 785.42 68.4844 786.061 68.9297C786.701 69.3672 787.518 69.5859 788.51 69.5859ZM803.2 72L797.903 54H801.524L805.052 67.2187H805.228L808.767 54H812.388L815.903 67.1602H816.079L819.583 54H823.204L817.919 72H814.345L810.688 59.0039H810.419L806.763 72H803.2ZM828.033 61.3125V72H824.529V54H827.893V56.9297H828.115C828.529 55.9766 829.178 55.2109 830.061 54.6328C830.951 54.0547 832.072 53.7656 833.424 53.7656C834.65 53.7656 835.725 54.0234 836.646 54.5391C837.568 55.0469 838.283 55.8047 838.791 56.8125C839.299 57.8203 839.553 59.0664 839.553 60.5508V72H836.049V60.9727C836.049 59.668 835.709 58.6484 835.029 57.9141C834.35 57.1719 833.416 56.8008 832.229 56.8008C831.416 56.8008 830.693 56.9766 830.061 57.3281C829.436 57.6797 828.939 58.1953 828.572 58.875C828.213 59.5469 828.033 60.3594 828.033 61.3125Z" fill="white"/>
</g>
<defs>
<clipPath id="clip0_21_3">
<rect width="1530" height="740" fill="white"/>
</clipPath>
</defs>
</svg>
