<svg version="1.1" xmlns="http://www.w3.org/2000/svg" viewBox="0 0 892.9118041992188 558.810546875" width="892.9118041992188" height="558.810546875">
  <!-- svg-source:excalidraw -->
  
  <defs>
    <style class="style-fonts">
      @font-face {
        font-family: "Virgil";
        src: url("https://excalidraw.com/Virgil.woff2");
      }
      @font-face {
        font-family: "Cascadia";
        src: url("https://excalidraw.com/Cascadia.woff2");
      }
    </style>
    
  </defs>
  <rect x="0" y="0" width="892.9118041992188" height="558.810546875" fill="#ffffff"/><g stroke-linecap="round" transform="translate(112.53197629405315 170.4227294921875) rotate(0 64 28)"><path d="M14 0 M14 0 C47.68 0.81, 78.35 0.53, 114 0 M14 0 C43.12 0.83, 69.78 -0.24, 114 0 M114 0 C121.96 -1.69, 128.91 4.16, 128 14 M114 0 C124.87 0.86, 129.8 3.57, 128 14 M128 14 C127.11 21.09, 129.07 26.74, 128 42 M128 14 C128.35 20.14, 128.91 27.65, 128 42 M128 42 C128.57 50.29, 124.13 55.83, 114 56 M128 42 C127.91 50.47, 125.57 57.74, 114 56 M114 56 C81.87 54.12, 50.34 54.89, 14 56 M114 56 C80.3 56.07, 45.88 56.08, 14 56 M14 56 C5.85 55.17, 0 50.93, 0 42 M14 56 C5.84 54.95, 2.25 52.24, 0 42 M0 42 C0.26 35.71, -0.32 31.13, 0 14 M0 42 C0.41 34.85, 0.51 28.8, 0 14 M0 14 C1.37 4.91, 2.88 0.21, 14 0 M0 14 C-1.3 3.46, 4.92 0.02, 14 0" stroke="#1e1e1e" stroke-width="1" fill="none"/></g><g transform="translate(119.83275754405315 175.4227294921875) rotate(0 56.69921875 23)"><text x="56.69921875" y="0" font-family="Helvetica, Segoe UI Emoji" font-size="20px" fill="#1e1e1e" text-anchor="middle" style="white-space: pre;" direction="ltr" dominant-baseline="text-before-edge">[Protocol]</text><text x="56.69921875" y="23" font-family="Helvetica, Segoe UI Emoji" font-size="20px" fill="#1e1e1e" text-anchor="middle" style="white-space: pre;" direction="ltr" dominant-baseline="text-before-edge">Attestation A</text></g><g stroke-linecap="round" transform="translate(446.71044309092815 10) rotate(0 59 28)"><path d="M14 0 M14 0 C39.89 1.82, 66.75 2.18, 104 0 M14 0 C48.79 -0.73, 85.4 -0.14, 104 0 M104 0 C114.67 0.74, 119.57 3.71, 118 14 M104 0 C111.55 1.17, 116.73 3.47, 118 14 M118 14 C116.89 23.61, 116.34 33.91, 118 42 M118 14 C118.54 20.4, 118.65 27.75, 118 42 M118 42 C117.92 50.58, 115.27 57.51, 104 56 M118 42 C118.33 50.42, 111.97 55.19, 104 56 M104 56 C83.58 57.57, 60.12 56.32, 14 56 M104 56 C70.51 56.3, 35.85 56.52, 14 56 M14 56 C5.69 55.09, 1.95 52.12, 0 42 M14 56 C2.7 56.94, -2.01 51.77, 0 42 M0 42 C-1.41 32.56, 1.46 26.43, 0 14 M0 42 C0.6 35.86, -0.98 29.58, 0 14 M0 14 C-1.13 3.61, 4.89 0.01, 14 0 M0 14 C-0.84 3.11, 2.39 -0.19, 14 0" stroke="#1e1e1e" stroke-width="1" fill="none"/></g><g transform="translate(454.57274777842815 15) rotate(0 51.1376953125 23)"><text x="51.1376953125" y="0" font-family="Helvetica, Segoe UI Emoji" font-size="20px" fill="#1e1e1e" text-anchor="middle" style="white-space: pre;" direction="ltr" dominant-baseline="text-before-edge">[Campaign]</text><text x="51.1376953125" y="23" font-family="Helvetica, Segoe UI Emoji" font-size="20px" fill="#1e1e1e" text-anchor="middle" style="white-space: pre;" direction="ltr" dominant-baseline="text-before-edge">Attestation</text></g><g stroke-linecap="round" transform="translate(448.22728879405315 170) rotate(0 67 30)"><path d="M15 0 M15 0 C56.52 -1.99, 94.01 -2.4, 119 0 M15 0 C38.05 0.64, 60.56 -0.21, 119 0 M119 0 C127.45 1.02, 132.89 3.96, 134 15 M119 0 C129.99 1.06, 134.33 3.58, 134 15 M134 15 C132.67 25.82, 134.35 33.58, 134 45 M134 15 C134.08 22.06, 135.09 30.64, 134 45 M134 45 C134.29 54.2, 127.81 59.3, 119 60 M134 45 C132.52 54.07, 128.4 60.92, 119 60 M119 60 C79.98 59.97, 39.41 61.47, 15 60 M119 60 C92.64 59.33, 66.23 60.18, 15 60 M15 60 C3.29 60.82, -1.75 55.38, 0 45 M15 60 C4.67 59.76, 1.31 53.34, 0 45 M0 45 C-1.74 38.78, -1.1 32.72, 0 15 M0 45 C-0.3 35.11, 0.38 26.29, 0 15 M0 15 C-0.73 3.65, 3.02 -0.17, 15 0 M0 15 C-1.75 3.12, 4.47 1.06, 15 0" stroke="#1e1e1e" stroke-width="1" fill="none"/></g><g transform="translate(458.52807004405315 177) rotate(0 56.69921875 23)"><text x="56.69921875" y="0" font-family="Helvetica, Segoe UI Emoji" font-size="20px" fill="#1e1e1e" text-anchor="middle" style="white-space: pre;" direction="ltr" dominant-baseline="text-before-edge">[Protocol]</text><text x="56.69921875" y="23" font-family="Helvetica, Segoe UI Emoji" font-size="20px" fill="#1e1e1e" text-anchor="middle" style="white-space: pre;" direction="ltr" dominant-baseline="text-before-edge">Attestation B</text></g><g stroke-linecap="round" transform="translate(733.8928283934468 170.19125491114846) rotate(0 66.5 30.5)"><path d="M15.25 0 M15.25 0 C39.4 1.61, 66.43 2.04, 117.75 0 M15.25 0 C49.04 1, 83.82 -0.03, 117.75 0 M117.75 0 C128.78 0.92, 133.29 3.85, 133 15.25 M117.75 0 C127.92 -2.05, 133.79 3.87, 133 15.25 M133 15.25 C132.05 27.96, 132.92 39.02, 133 45.75 M133 15.25 C133.44 22.85, 132.7 30.9, 133 45.75 M133 45.75 C131.72 55.11, 127.4 61.8, 117.75 61 M133 45.75 C135.08 54.26, 128.56 62.81, 117.75 61 M117.75 61 C87.78 61.61, 59.08 62.63, 15.25 61 M117.75 61 C90.81 61.81, 64.71 61.59, 15.25 61 M15.25 61 C4.79 60.79, 1.14 54.48, 0 45.75 M15.25 61 C3.42 62.65, 0.47 54.16, 0 45.75 M0 45.75 C0.37 33.88, 0.34 24.46, 0 15.25 M0 45.75 C-0.4 37.53, -1.02 30.58, 0 15.25 M0 15.25 C-1.52 3.45, 4.62 0.92, 15.25 0 M0 15.25 C-0.07 2.89, 4.19 -1.73, 15.25 0" stroke="#1e1e1e" stroke-width="1" fill="none"/></g><g transform="translate(743.1418518309468 177.69125491114846) rotate(0 57.2509765625 23)"><text x="57.2509765625" y="0" font-family="Helvetica, Segoe UI Emoji" font-size="20px" fill="#1e1e1e" text-anchor="middle" style="white-space: pre;" direction="ltr" dominant-baseline="text-before-edge">[Protocol]</text><text x="57.2509765625" y="23" font-family="Helvetica, Segoe UI Emoji" font-size="20px" fill="#1e1e1e" text-anchor="middle" style="white-space: pre;" direction="ltr" dominant-baseline="text-before-edge">Attestation C</text></g><g stroke-linecap="round" transform="translate(22.744866919053152 319.30267333984375) rotate(0 59 30)"><path d="M15 0 M15 0 C43.42 0.5, 73.07 1.38, 103 0 M15 0 C32.87 0.43, 50.49 1.03, 103 0 M103 0 C114.45 0.52, 119.54 5.93, 118 15 M103 0 C113.5 -1.6, 119.06 6.09, 118 15 M118 15 C119.11 25.92, 118.72 36.84, 118 45 M118 15 C118.27 24.36, 118.51 33.32, 118 45 M118 45 C119.71 54.33, 111.16 61.04, 103 60 M118 45 C116.56 56.96, 110.87 62.03, 103 60 M103 60 C80.44 58.27, 59.32 60.49, 15 60 M103 60 C78.83 58.69, 56.11 58.5, 15 60 M15 60 C3.89 61.81, -0.06 53.8, 0 45 M15 60 C5.79 61.35, 1.4 57.18, 0 45 M0 45 C-0.68 36.53, 1.84 24.23, 0 15 M0 45 C-0.49 38.34, 0.9 32.41, 0 15 M0 15 C-1.32 3.99, 5.74 0.71, 15 0 M0 15 C-0.64 3.68, 4.82 0.35, 15 0" stroke="#1e1e1e" stroke-width="1" fill="none"/></g><g transform="translate(34.49389035655315 326.30267333984375) rotate(0 47.2509765625 23)"><text x="47.2509765625" y="0" font-family="Helvetica, Segoe UI Emoji" font-size="20px" fill="#1e1e1e" text-anchor="middle" style="white-space: pre;" direction="ltr" dominant-baseline="text-before-edge">[Function]</text><text x="47.2509765625" y="23" font-family="Helvetica, Segoe UI Emoji" font-size="20px" fill="#1e1e1e" text-anchor="middle" style="white-space: pre;" direction="ltr" dominant-baseline="text-before-edge">Attestation</text></g><g stroke-linecap="round"><g transform="translate(166.62150395497628 230.2742919921875) rotate(0 -40.5382356985169 44.014190673828125)"><path d="M-0.93 0.61 C-14.71 15.28, -68.47 72.74, -81.74 87.41 M0.78 -0.11 C-12.69 14.75, -65.74 74.18, -79.38 88.62" stroke="#1e1e1e" stroke-width="1" fill="none"/></g><g transform="translate(166.62150395497628 230.2742919921875) rotate(0 -40.5382356985169 44.014190673828125)"><path d="M-66.9 59.78 C-73.43 72.16, -75.8 82.08, -80.61 88.62 M-67.01 61.2 C-69.96 66.15, -72.26 72.43, -79.41 88.24" stroke="#1e1e1e" stroke-width="1" fill="none"/></g><g transform="translate(166.62150395497628 230.2742919921875) rotate(0 -40.5382356985169 44.014190673828125)"><path d="M-51.76 73.63 C-63.95 80.65, -72.05 85.33, -80.61 88.62 M-51.87 75.05 C-58.05 77, -63.54 80.36, -79.41 88.24" stroke="#1e1e1e" stroke-width="1" fill="none"/></g></g><mask/><g stroke-linecap="round"><g transform="translate(467.6057260650727 70) rotate(0 -145.38997413287146 49.71136474609375)"><path d="M-0.66 -0.62 C-48.89 15.94, -241.94 83.43, -290.26 99.98 M1.19 1.67 C-47.06 17.82, -242.19 81.82, -290.94 98.15" stroke="#1e1e1e" stroke-width="1" fill="none"/></g><g transform="translate(467.6057260650727 70) rotate(0 -145.38997413287146 49.71136474609375)"><path d="M-268.44 80.41 C-271.61 83.84, -279.01 87.69, -292.72 98.84 M-267.11 79.03 C-272.65 84.13, -278.9 88.44, -289.97 98.9" stroke="#1e1e1e" stroke-width="1" fill="none"/></g><g transform="translate(467.6057260650727 70) rotate(0 -145.38997413287146 49.71136474609375)"><path d="M-261.99 99.89 C-266.7 98.95, -275.53 98.47, -292.72 98.84 M-260.67 98.51 C-267.97 98.81, -275.82 98.31, -289.97 98.9" stroke="#1e1e1e" stroke-width="1" fill="none"/></g></g><mask/><g stroke-linecap="round"><g transform="translate(542.8153465008604 70.2742919921875) rotate(0 121.38162375820804 47.200405350339366)"><path d="M0.52 0.55 C41.12 16.27, 202.56 78.2, 242.94 93.66 M-0.67 -0.2 C39.85 15.71, 201.63 79.09, 242.08 94.81" stroke="#1e1e1e" stroke-width="1" fill="none"/></g><g transform="translate(542.8153465008604 70.2742919921875) rotate(0 121.38162375820804 47.200405350339366)"><path d="M213.01 94.4 C218.19 94.16, 224.97 95.01, 241.02 96.63 M212.48 94.03 C221.97 94.12, 232.9 95.48, 242.22 94.41" stroke="#1e1e1e" stroke-width="1" fill="none"/></g><g transform="translate(542.8153465008604 70.2742919921875) rotate(0 121.38162375820804 47.200405350339366)"><path d="M220.47 75.28 C223.72 79.75, 228.69 85.28, 241.02 96.63 M219.95 74.91 C227.02 81.29, 235.48 88.97, 242.22 94.41" stroke="#1e1e1e" stroke-width="1" fill="none"/></g></g><mask/><g stroke-linecap="round"><g transform="translate(508.37754511854973 70) rotate(0 0.19827170481292455 47.44281005859375)"><path d="M0.17 -0.74 C0.15 14.8, 0.29 77.98, 0.4 93.81 M-1.2 1.48 C-1.42 17.09, -0.79 79.16, -0.55 94.79" stroke="#1e1e1e" stroke-width="1" fill="none"/></g><g transform="translate(508.37754511854973 70) rotate(0 0.19827170481292455 47.44281005859375)"><path d="M-12.38 66.73 C-9.17 77.03, -4.8 87.79, 0.07 95.36 M-11.18 66.35 C-7.44 74.45, -5.64 80.26, -1.14 94.44" stroke="#1e1e1e" stroke-width="1" fill="none"/></g><g transform="translate(508.37754511854973 70) rotate(0 0.19827170481292455 47.44281005859375)"><path d="M8.14 66.48 C4.31 76.9, 1.64 87.74, 0.07 95.36 M9.34 66.1 C7.99 74.24, 4.71 80.11, -1.14 94.44" stroke="#1e1e1e" stroke-width="1" fill="none"/></g></g><mask/><g transform="translate(637.3073669190532 333.5011291503906) rotate(0 15 11.5)"><text x="0" y="0" font-family="Helvetica, Segoe UI Emoji" font-size="20px" fill="#e03131" text-anchor="start" style="white-space: pre;" direction="ltr" dominant-baseline="text-before-edge">OR</text></g><g stroke-linecap="round" transform="translate(202.74486691905315 319.30267333984375) rotate(0 60 30)"><path d="M15 0 M15 0 C40.96 1.51, 69.64 0.26, 105 0 M15 0 C37.28 -0.3, 60.61 0.83, 105 0 M105 0 C115.29 -0.8, 118.81 4.3, 120 15 M105 0 C113.52 -0.93, 119.4 5.92, 120 15 M120 15 C121.36 26.4, 121.39 39.6, 120 45 M120 15 C120.51 22.3, 120.98 30.89, 120 45 M120 45 C118.29 55.82, 113.25 60.38, 105 60 M120 45 C119.67 54.76, 116.31 58.34, 105 60 M105 60 C82.99 60.8, 63.16 61.56, 15 60 M105 60 C76.35 59.57, 48.95 60.1, 15 60 M15 60 C4.27 58.65, -1.98 54.83, 0 45 M15 60 C3.25 58.12, -0.53 56.06, 0 45 M0 45 C-1.21 36.71, 1.08 27.23, 0 15 M0 45 C-0.37 37.29, -0.57 28.59, 0 15 M0 15 C-0.22 3.02, 5.63 -1.12, 15 0 M0 15 C1.48 4.11, 5.57 0.53, 15 0" stroke="#1e1e1e" stroke-width="1" fill="none"/></g><g transform="translate(215.49389035655315 326.30267333984375) rotate(0 47.2509765625 23)"><text x="47.2509765625" y="0" font-family="Helvetica, Segoe UI Emoji" font-size="20px" fill="#1e1e1e" text-anchor="middle" style="white-space: pre;" direction="ltr" dominant-baseline="text-before-edge">[Function]</text><text x="47.2509765625" y="23" font-family="Helvetica, Segoe UI Emoji" font-size="20px" fill="#1e1e1e" text-anchor="middle" style="white-space: pre;" direction="ltr" dominant-baseline="text-before-edge">Attestation</text></g><g stroke-linecap="round"><g transform="translate(187.68417071659138 230.2742919921875) rotate(0 33.5519634400969 44.014190673828125)"><path d="M0.34 -0.62 C11.42 13.97, 56.46 73.22, 67.58 87.92 M-0.94 1.66 C9.93 16.42, 55.68 74.91, 66.88 89.41" stroke="#1e1e1e" stroke-width="1" fill="none"/></g><g transform="translate(187.68417071659138 230.2742919921875) rotate(0 33.5519634400969 44.014190673828125)"><path d="M40.44 74.24 C51.28 79.54, 60.63 87.79, 68.39 89.69 M40.84 73.04 C47.73 78.09, 55.51 81.12, 67.16 90.19" stroke="#1e1e1e" stroke-width="1" fill="none"/></g><g transform="translate(187.68417071659138 230.2742919921875) rotate(0 33.5519634400969 44.014190673828125)"><path d="M56.64 61.64 C61.19 71.91, 64.21 85.09, 68.39 89.69 M57.04 60.45 C59.65 68.71, 63.2 75.02, 67.16 90.19" stroke="#1e1e1e" stroke-width="1" fill="none"/></g></g><mask/><g stroke-linecap="round" transform="translate(22.744866919053152 459.30267333984375) rotate(0 59 30)"><path d="M15 0 M15 0 C43.73 -0.42, 72.06 1.59, 103 0 M103 0 C114.51 0.29, 117.2 3.81, 118 15 M118 15 C117.29 23.74, 119.61 29.45, 118 45 M118 45 C118.56 56.57, 112.68 61.6, 103 60 M103 60 C71 61.03, 38.9 61.96, 15 60 M15 60 C5.78 58.29, 0.82 53.25, 0 45 M0 45 C1.19 33.99, -1.41 27.3, 0 15 M0 15 C0.41 3.47, 5.61 -0.88, 15 0" stroke="#1e1e1e" stroke-width="1.5" fill="none" stroke-dasharray="8 9"/></g><g transform="translate(37.83373410655315 466.30267333984375) rotate(0 43.9111328125 23)"><text x="43.9111328125" y="0" font-family="Helvetica, Segoe UI Emoji" font-size="20px" fill="#1e1e1e" text-anchor="middle" style="white-space: pre;" direction="ltr" dominant-baseline="text-before-edge">[Function]</text><text x="43.9111328125" y="23" font-family="Helvetica, Segoe UI Emoji" font-size="20px" fill="#1e1e1e" text-anchor="middle" style="white-space: pre;" direction="ltr" dominant-baseline="text-before-edge">Action</text></g><g stroke-linecap="round" transform="translate(202.74486691905315 458.75408935546875) rotate(0 60 30)"><path d="M15 0 M15 0 C48.6 0.85, 82.38 -1.29, 105 0 M105 0 C114.84 1.32, 120.99 6.75, 120 15 M120 15 C120.42 22.04, 120.97 28.76, 120 45 M120 45 C118.25 54.6, 113.72 58.2, 105 60 M105 60 C86.59 60.16, 64.87 60.18, 15 60 M15 60 C6.78 58.04, 0.95 54.17, 0 45 M0 45 C1.43 33.98, 0.18 22.34, 0 15 M0 15 C-0.71 3.9, 3.1 0.24, 15 0" stroke="#1e1e1e" stroke-width="1.5" fill="none" stroke-dasharray="8 9"/></g><g transform="translate(218.83373410655315 465.75408935546875) rotate(0 43.9111328125 23)"><text x="43.9111328125" y="0" font-family="Helvetica, Segoe UI Emoji" font-size="20px" fill="#1e1e1e" text-anchor="middle" style="white-space: pre;" direction="ltr" dominant-baseline="text-before-edge">[Function]</text><text x="43.9111328125" y="23" font-family="Helvetica, Segoe UI Emoji" font-size="20px" fill="#1e1e1e" text-anchor="middle" style="white-space: pre;" direction="ltr" dominant-baseline="text-before-edge">Action</text></g><g stroke-linecap="round"><g transform="translate(82.94206919183029 380.30267333984375) rotate(0 -0.07023099050613268 39)"><path d="M-0.71 -0.42 C-0.89 12.58, -0.95 64.37, -0.91 77.52" stroke="#1e1e1e" stroke-width="1.5" fill="none" stroke-dasharray="8 9"/></g><g transform="translate(82.94206919183029 380.30267333984375) rotate(0 -0.07023099050613268 39)"><path d="M-11.89 48.05 C-8.87 57.73, -4.04 68.92, -2.35 78.07" stroke="#1e1e1e" stroke-width="1.5" fill="none"/></g><g transform="translate(82.94206919183029 380.30267333984375) rotate(0 -0.07023099050613268 39)"><path d="M8.63 48.04 C5.2 57.6, 3.58 68.79, -2.35 78.07" stroke="#1e1e1e" stroke-width="1.5" fill="none"/></g></g><mask/><g stroke-linecap="round"><g transform="translate(262.74486691905315 380.30267333984375) rotate(0 1.9490620112473778 38.7257080078125)"><path d="M-0.77 -0.48 C-0.05 12.58, 2.63 65.08, 3.59 77.93" stroke="#1e1e1e" stroke-width="1.5" fill="none" stroke-dasharray="8 9"/></g><g transform="translate(262.74486691905315 380.30267333984375) rotate(0 1.9490620112473778 38.7257080078125)"><path d="M-9.18 49.9 C-4.8 58.92, -4.16 64.29, 5.16 77.61" stroke="#1e1e1e" stroke-width="1.5" fill="none"/></g><g transform="translate(262.74486691905315 380.30267333984375) rotate(0 1.9490620112473778 38.7257080078125)"><path d="M11.31 48.65 C10.75 57.84, 6.47 63.51, 5.16 77.61" stroke="#1e1e1e" stroke-width="1.5" fill="none"/></g></g><mask/><g transform="translate(360.05602414561565 333.5544738769531) rotate(0 21.11328125 11.5)"><text x="0" y="0" font-family="Helvetica, Segoe UI Emoji" font-size="20px" fill="#e03131" text-anchor="start" style="white-space: pre;" direction="ltr" dominant-baseline="text-before-edge">AND</text></g><g stroke-linecap="round" transform="translate(450.3593078370219 322.943603515625) rotate(0 59 30)"><path d="M15 0 M15 0 C36.64 1.63, 58.63 0.05, 103 0 M15 0 C35.12 -0.93, 54.55 0.05, 103 0 M103 0 C111.18 -1.8, 119.59 5.35, 118 15 M103 0 C111.85 -1.64, 117.37 3, 118 15 M118 15 C119.52 23.25, 117.44 31.8, 118 45 M118 15 C117.31 27.85, 117.29 39.17, 118 45 M118 45 C118.31 56.87, 112.43 58.88, 103 60 M118 45 C120.04 54.16, 113.2 57.94, 103 60 M103 60 C71.78 60.94, 39.07 61.39, 15 60 M103 60 C70.22 59.68, 35.87 60.47, 15 60 M15 60 C5.98 60.55, -0.05 53.59, 0 45 M15 60 C3.14 60.92, 0.41 54.68, 0 45 M0 45 C0.28 33.78, -0.23 27.03, 0 15 M0 45 C0.48 33.49, -0.16 22.05, 0 15 M0 15 C-1.09 5.97, 3.13 0.77, 15 0 M0 15 C-0.13 5.3, 6.07 -1.3, 15 0" stroke="#1e1e1e" stroke-width="1" fill="none"/></g><g transform="translate(462.1083312745219 329.943603515625) rotate(0 47.2509765625 23)"><text x="47.2509765625" y="0" font-family="Helvetica, Segoe UI Emoji" font-size="20px" fill="#1e1e1e" text-anchor="middle" style="white-space: pre;" direction="ltr" dominant-baseline="text-before-edge">[Function]</text><text x="47.2509765625" y="23" font-family="Helvetica, Segoe UI Emoji" font-size="20px" fill="#1e1e1e" text-anchor="middle" style="white-space: pre;" direction="ltr" dominant-baseline="text-before-edge">Attestation</text></g><g stroke-linecap="round"><g transform="translate(512.379306180276 234.27511596679688) rotate(0 0.9208985844107715 41.82225036621094)"><path d="M0.25 0.58 C0.67 14.66, 1.43 69.45, 1.58 83.36 M-1.08 -0.16 C-0.75 14.19, 0.32 71.07, 0.5 84.74" stroke="#1e1e1e" stroke-width="1" fill="none"/></g><g transform="translate(512.379306180276 234.27511596679688) rotate(0 0.9208985844107715 41.82225036621094)"><path d="M-9.26 56.29 C-8.61 61.68, -5.13 67.83, 1.78 86.62 M-9.7 56.02 C-6.6 66.73, -1.61 76.57, 0.96 84.13" stroke="#1e1e1e" stroke-width="1" fill="none"/></g><g transform="translate(512.379306180276 234.27511596679688) rotate(0 0.9208985844107715 41.82225036621094)"><path d="M11.26 55.95 C7.4 61.46, 6.39 67.68, 1.78 86.62 M10.82 55.68 C6.35 66.4, 3.77 76.37, 0.96 84.13" stroke="#1e1e1e" stroke-width="1" fill="none"/></g></g><mask/><g transform="translate(148.4242492432719 335.8752746582031) rotate(0 21.11328125 11.5)"><text x="0" y="0" font-family="Helvetica, Segoe UI Emoji" font-size="20px" fill="#1e1e1e" text-anchor="start" style="white-space: pre;" direction="ltr" dominant-baseline="text-before-edge">AND</text></g><g stroke-linecap="round" transform="translate(450.38256223155315 459.3026123046875) rotate(0 60 30)"><path d="M15 0 M15 0 C45.68 -0.92, 81.15 0.13, 105 0 M105 0 C114.87 -1.53, 121.82 3.18, 120 15 M120 15 C119.24 19.88, 119.69 25.87, 120 45 M120 45 C119.62 56.92, 113.81 61.24, 105 60 M105 60 C80.76 59.85, 53.83 58.63, 15 60 M15 60 C6.94 58.62, 0.8 55.31, 0 45 M0 45 C1.86 32.47, 0.26 19.59, 0 15 M0 15 C1.44 3.67, 4.28 1.52, 15 0" stroke="#1e1e1e" stroke-width="1.5" fill="none" stroke-dasharray="8 9"/></g><g transform="translate(466.47142941905315 466.3026123046875) rotate(0 43.9111328125 23)"><text x="43.9111328125" y="0" font-family="Helvetica, Segoe UI Emoji" font-size="20px" fill="#1e1e1e" text-anchor="middle" style="white-space: pre;" direction="ltr" dominant-baseline="text-before-edge">[Function]</text><text x="43.9111328125" y="23" font-family="Helvetica, Segoe UI Emoji" font-size="20px" fill="#1e1e1e" text-anchor="middle" style="white-space: pre;" direction="ltr" dominant-baseline="text-before-edge">Action</text></g><g stroke-linecap="round"><g transform="translate(514.5191138598748 389.94696044921875) rotate(0 0.6009155525780585 31.213409423828125)"><path d="M-0.04 -0.08 C0.12 10.31, 0.26 53.28, 0.28 63.52" stroke="#1e1e1e" stroke-width="1.5" fill="none" stroke-dasharray="8 9"/></g><g transform="translate(514.5191138598748 389.94696044921875) rotate(0 0.6009155525780585 31.213409423828125)"><path d="M-10.2 33.83 C-5.45 40.41, -6.53 50.69, 0.63 62.52" stroke="#1e1e1e" stroke-width="1.5" fill="none"/></g><g transform="translate(514.5191138598748 389.94696044921875) rotate(0 0.6009155525780585 31.213409423828125)"><path d="M10.32 33.76 C10.07 40.36, 3.97 50.65, 0.63 62.52" stroke="#1e1e1e" stroke-width="1.5" fill="none"/></g></g><mask/><g stroke-linecap="round" transform="translate(737.3225646729594 322.94366455078125) rotate(0 59 30)"><path d="M15 0 M15 0 C34.99 -0.65, 56.47 -0.08, 103 0 M15 0 C40.16 0.05, 64.01 0.56, 103 0 M103 0 C114.26 -1.69, 117.74 3.92, 118 15 M103 0 C111.12 -0.68, 119.01 5.87, 118 15 M118 15 C118.26 24.81, 117.06 36.89, 118 45 M118 15 C117.37 23.8, 119.1 32.69, 118 45 M118 45 C117.8 54.69, 111.97 61.87, 103 60 M118 45 C118.8 53.53, 111.57 61.23, 103 60 M103 60 C78.14 59.4, 56.05 58.7, 15 60 M103 60 C71.37 60.26, 40.26 59.95, 15 60 M15 60 C3.11 58.3, 0.17 53.81, 0 45 M15 60 C4.37 60.54, -0.75 56.63, 0 45 M0 45 C0.95 36.85, -0.07 25.14, 0 15 M0 45 C0.76 38.16, 0.5 29.53, 0 15 M0 15 C-1.39 4.33, 3.58 0.73, 15 0 M0 15 C-0.1 4.18, 6.3 -0.14, 15 0" stroke="#1e1e1e" stroke-width="1" fill="none"/></g><g transform="translate(749.0715881104594 329.94366455078125) rotate(0 47.2509765625 23)"><text x="47.2509765625" y="0" font-family="Helvetica, Segoe UI Emoji" font-size="20px" fill="#1e1e1e" text-anchor="middle" style="white-space: pre;" direction="ltr" dominant-baseline="text-before-edge">[Function]</text><text x="47.2509765625" y="23" font-family="Helvetica, Segoe UI Emoji" font-size="20px" fill="#1e1e1e" text-anchor="middle" style="white-space: pre;" direction="ltr" dominant-baseline="text-before-edge">Attestation</text></g><g stroke-linecap="round" transform="translate(737.3458190674907 459.30267333984375) rotate(0 60 30)"><path d="M15 0 M15 0 C43.17 -0.59, 67.53 -2.06, 105 0 M105 0 C114.3 -1.28, 119.2 4.48, 120 15 M120 15 C120.83 26.77, 119.96 36.99, 120 45 M120 45 C121.18 54.17, 115 59.6, 105 60 M105 60 C74.18 59.17, 42.6 59.13, 15 60 M15 60 C5.38 59.71, -0.21 56.14, 0 45 M0 45 C0.63 36.64, 0.83 30.44, 0 15 M0 15 C1.37 5.24, 3.21 0.21, 15 0" stroke="#1e1e1e" stroke-width="1.5" fill="none" stroke-dasharray="8 9"/></g><g transform="translate(753.4346862549907 466.30267333984375) rotate(0 43.9111328125 23)"><text x="43.9111328125" y="0" font-family="Helvetica, Segoe UI Emoji" font-size="20px" fill="#1e1e1e" text-anchor="middle" style="white-space: pre;" direction="ltr" dominant-baseline="text-before-edge">[Function]</text><text x="43.9111328125" y="23" font-family="Helvetica, Segoe UI Emoji" font-size="20px" fill="#1e1e1e" text-anchor="middle" style="white-space: pre;" direction="ltr" dominant-baseline="text-before-edge">Action</text></g><g stroke-linecap="round"><g transform="translate(801.4823706958123 389.947021484375) rotate(0 0.6009155525780585 31.213409423828125)"><path d="M-0.01 -1.16 C0.1 9.12, 1.68 52.27, 1.8 62.72" stroke="#1e1e1e" stroke-width="1.5" fill="none" stroke-dasharray="8 9"/></g><g transform="translate(801.4823706958123 389.947021484375) rotate(0 0.6009155525780585 31.213409423828125)"><path d="M-11.11 35.79 C-4.11 44.97, -1.7 57.31, 3.42 61.57" stroke="#1e1e1e" stroke-width="1.5" fill="none"/></g><g transform="translate(801.4823706958123 389.947021484375) rotate(0 0.6009155525780585 31.213409423828125)"><path d="M9.4 35.26 C8.3 44.65, 2.59 57.19, 3.42 61.57" stroke="#1e1e1e" stroke-width="1.5" fill="none"/></g></g><mask/><g stroke-linecap="round"><g transform="translate(800.5585327148438 236.77481079101562) rotate(0 0.09954833984375 39.46684265136719)"><path d="M-0.54 -0.04 C-0.37 12.92, 1.24 64.74, 1.3 77.89 M1.38 -1.11 C1.46 11.95, 1.36 65.33, 0.93 78.87" stroke="#1e1e1e" stroke-width="1" fill="none"/></g><g transform="translate(800.5585327148438 236.77481079101562) rotate(0 0.09954833984375 39.46684265136719)"><path d="M-8.99 52.37 C-7.42 59.13, -2.58 69.38, 0.97 80.76 M-9.68 51.36 C-6.37 57.99, -4.03 65.42, 0.75 77.94" stroke="#1e1e1e" stroke-width="1" fill="none"/></g><g transform="translate(800.5585327148438 236.77481079101562) rotate(0 0.09954833984375 39.46684265136719)"><path d="M11.53 52.67 C6.4 59.24, 4.55 69.39, 0.97 80.76 M10.84 51.65 C8.58 58.33, 5.34 65.67, 0.75 77.94" stroke="#1e1e1e" stroke-width="1" fill="none"/></g></g><mask/><g stroke-linecap="round" transform="translate(419.95440673828125 133.50518798828125) rotate(0 92.7105712890625 207.65267944335938)"><path d="M32 0 M32 0 C63.97 2.28, 99.94 -0.52, 153.42 0 M153.42 0 C175.91 0.01, 185.38 12.27, 185.42 32 M185.42 32 C184.64 133.67, 184.27 232.3, 185.42 383.31 M185.42 383.31 C184.6 404.48, 174.52 416.11, 153.42 415.31 M153.42 415.31 C111.73 416.13, 71.48 417.16, 32 415.31 M32 415.31 C8.89 415.42, -1.74 405.1, 0 383.31 M0 383.31 C2.63 276.83, 2.38 171.36, 0 32 M0 32 C0.33 9.2, 10.41 0.69, 32 0" stroke="#1e1e1e" stroke-width="1.5" fill="none" stroke-dasharray="8 9"/></g><g stroke-linecap="round" transform="translate(10 133.23089599609375) rotate(0 162.41641235351562 207.65267944335938)"><path d="M32 0 M32 0 C99.26 3.32, 169.31 0.37, 292.83 0 M292.83 0 C315.46 0.28, 324.97 9.74, 324.83 32 M324.83 32 C326.14 114.31, 326.01 197.25, 324.83 383.31 M324.83 383.31 C324.99 404.38, 312.45 415.93, 292.83 415.31 M292.83 415.31 C221.95 417.67, 152.97 417.7, 32 415.31 M32 415.31 C10.2 415.31, -0.41 405.76, 0 383.31 M0 383.31 C0.35 249.25, -1 114.41, 0 32 M0 32 C-0.06 10.49, 10.02 1.06, 32 0" stroke="#1e1e1e" stroke-width="1.5" fill="none" stroke-dasharray="8 9"/></g><g stroke-linecap="round" transform="translate(697.4906616210938 133.50518798828125) rotate(0 92.7105712890625 207.65267944335938)"><path d="M32 0 M32 0 C74.66 -2.23, 114.59 0.52, 153.42 0 M153.42 0 C174.1 1.62, 185.88 10.17, 185.42 32 M185.42 32 C182.87 150.03, 184.68 268.49, 185.42 383.31 M185.42 383.31 C186.23 404.02, 175.19 416.51, 153.42 415.31 M153.42 415.31 C113.95 416.01, 75.47 414.57, 32 415.31 M32 415.31 C10.74 414.14, -1 404.16, 0 383.31 M0 383.31 C0.2 262.49, 1.24 142.69, 0 32 M0 32 C-1.39 12.49, 12.43 -1.76, 32 0" stroke="#1e1e1e" stroke-width="1.5" fill="none" stroke-dasharray="8 9"/></g></svg>