<svg version="1.1" xmlns="http://www.w3.org/2000/svg" viewBox="0 0 751 440" width="751" height="440">
  <!-- svg-source:excalidraw -->
  
  <defs>
    <style class="style-fonts">
      @font-face {
        font-family: "Virgil";
        src: url("https://excalidraw.com/Virgil.woff2");
      }
      @font-face {
        font-family: "Cascadia";
        src: url("https://excalidraw.com/Cascadia.woff2");
      }
    </style>
    
  </defs>
  <rect x="0" y="0" width="751" height="440" fill="#ffffff"/><g stroke-linecap="round" transform="translate(10 10) rotate(0 78.5 31)"><path d="M15.5 0 M15.5 0 C55.56 -0.61, 94.56 -1.18, 141.5 0 M15.5 0 C64.11 -0.29, 114.27 -1.06, 141.5 0 M141.5 0 C150.52 -1.46, 158.29 6.73, 157 15.5 M141.5 0 C151.88 -1.46, 155.86 6.47, 157 15.5 M157 15.5 C158.3 27.57, 156.04 36.71, 157 46.5 M157 15.5 C157.71 24.57, 157.35 33.26, 157 46.5 M157 46.5 C157.27 56.39, 150.18 60.75, 141.5 62 M157 46.5 C155.34 57.3, 154.06 63.1, 141.5 62 M141.5 62 C100.86 62.28, 61.52 62.66, 15.5 62 M141.5 62 C103.51 61.99, 65.35 63.35, 15.5 62 M15.5 62 C4.81 61.07, -0.82 55.79, 0 46.5 M15.5 62 C3.22 63.83, -0.91 55.2, 0 46.5 M0 46.5 C1.35 39.56, 0.67 30.27, 0 15.5 M0 46.5 C-0.62 38.54, 0.34 31.63, 0 15.5 M0 15.5 C-0.53 6.34, 4.94 0.79, 15.5 0 M0 15.5 C-2.29 5.15, 7 -0.64, 15.5 0" stroke="#1e1e1e" stroke-width="1" fill="none"/></g><g transform="translate(38.69921875 22.600000000000023) rotate(0 49.80078125 18.400000000000006)"><text x="49.80078125" y="0" font-family="Helvetica, Segoe UI Emoji" font-size="16px" fill="#1e1e1e" text-anchor="middle" style="white-space: pre;" direction="ltr" dominant-baseline="text-before-edge">[module]</text><text x="49.80078125" y="18.4" font-family="Helvetica, Segoe UI Emoji" font-size="16px" fill="#1e1e1e" text-anchor="middle" style="white-space: pre;" direction="ltr" dominant-baseline="text-before-edge"> XXX Protocol</text></g><g stroke-linecap="round" transform="translate(90 370) rotate(0 88.5 30)"><path d="M15 0 M15 0 C66.29 -0.54, 122.36 0.28, 162 0 M15 0 C61.58 -0.7, 106.02 -0.53, 162 0 M162 0 C173.29 1.56, 177.04 3.73, 177 15 M162 0 C170.86 1.31, 177.83 5.39, 177 15 M177 15 C176.17 23.35, 176.97 30.11, 177 45 M177 15 C177.73 26.6, 177.39 38.32, 177 45 M177 45 C175.35 53.75, 170.55 60.41, 162 60 M177 45 C179.23 56.1, 172.47 58.73, 162 60 M162 60 C105.27 58.88, 47.07 60.84, 15 60 M162 60 C108.74 59.43, 55.68 58.39, 15 60 M15 60 C4.18 58.96, -1.69 56.6, 0 45 M15 60 C4.09 58.37, -0.84 56.45, 0 45 M0 45 C0.63 35.79, -1.29 24.71, 0 15 M0 45 C0.35 38.3, 0 31.27, 0 15 M0 15 C-0.23 5.79, 3.01 -0.01, 15 0 M0 15 C1.83 4.36, 6.76 1.37, 15 0" stroke="#1e1e1e" stroke-width="1" fill="none"/></g><g transform="translate(126.4765625 381.6) rotate(0 52.0234375 18.400000000000002)"><text x="52.0234375" y="0" font-family="Helvetica, Segoe UI Emoji" font-size="16px" fill="#1e1e1e" text-anchor="middle" style="white-space: pre;" direction="ltr" dominant-baseline="text-before-edge">[module]</text><text x="52.0234375" y="18.4" font-family="Helvetica, Segoe UI Emoji" font-size="16px" fill="#1e1e1e" text-anchor="middle" style="white-space: pre;" direction="ltr" dominant-baseline="text-before-edge">Action Attester</text></g><g stroke-linecap="round" transform="translate(10 170) rotate(0 77 30.5)"><path d="M15.25 0 M15.25 0 C54.9 0.65, 91.22 -0.53, 138.75 0 M15.25 0 C49.93 0.39, 86.57 1.9, 138.75 0 M138.75 0 C148.96 -1.27, 153.01 6.22, 154 15.25 M138.75 0 C149.75 0.39, 153.22 6.51, 154 15.25 M154 15.25 C153.63 26.04, 155.69 40.25, 154 45.75 M154 15.25 C154.28 24.51, 153.32 33.58, 154 45.75 M154 45.75 C152.55 56.32, 150.86 61.95, 138.75 61 M154 45.75 C154.47 54.65, 151.01 60.68, 138.75 61 M138.75 61 C107.08 62.18, 76.56 60.69, 15.25 61 M138.75 61 C111.15 61.25, 83.49 61.2, 15.25 61 M15.25 61 C3.39 62.6, -0.79 54.5, 0 45.75 M15.25 61 C4.24 62.45, 0.24 57.7, 0 45.75 M0 45.75 C-1.19 33.06, -1.36 21.98, 0 15.25 M0 45.75 C-0.29 38.08, -0.14 29.63, 0 15.25 M0 15.25 C-1.99 5.07, 6.68 -0.56, 15.25 0 M0 15.25 C1.76 6.46, 6.86 1.72, 15.25 0" stroke="#1e1e1e" stroke-width="1" fill="none"/></g><g transform="translate(61.20703125 182.1) rotate(0 25.79296875 18.4)"><text x="25.79296875" y="0" font-family="Helvetica, Segoe UI Emoji" font-size="16px" fill="#1e1e1e" text-anchor="middle" style="white-space: pre;" direction="ltr" dominant-baseline="text-before-edge">[object]</text><text x="25.79296875" y="18.4" font-family="Helvetica, Segoe UI Emoji" font-size="16px" fill="#1e1e1e" text-anchor="middle" style="white-space: pre;" direction="ltr" dominant-baseline="text-before-edge">Action</text></g><g stroke-linecap="round" transform="translate(230 170) rotate(0 80 30)"><path d="M15 0 M15 0 C51.39 -1.05, 87.02 1.25, 145 0 M15 0 C42.85 1.73, 69.43 0.31, 145 0 M145 0 C154.01 1.14, 160.73 5.34, 160 15 M145 0 C154.22 1.43, 161.89 3.83, 160 15 M160 15 C161.81 26.23, 160.18 35.06, 160 45 M160 15 C159.21 22.87, 159.32 32.2, 160 45 M160 45 C161.94 55.95, 155.41 58.9, 145 60 M160 45 C162.09 54.68, 154 60.86, 145 60 M145 60 C110.36 60.95, 71.71 60.58, 15 60 M145 60 C98.05 58.88, 51.07 60.19, 15 60 M15 60 C4.21 58.58, -0.73 56.26, 0 45 M15 60 C5.24 61.78, 1.4 55.99, 0 45 M0 45 C-1.07 34.11, -0.43 26.88, 0 15 M0 45 C-0.04 35.02, -0.92 24.24, 0 15 M0 15 C1.59 4.44, 6.53 1.19, 15 0 M0 15 C1.77 6.72, 4.05 -0.35, 15 0" stroke="#1e1e1e" stroke-width="1" fill="none"/></g><g transform="translate(247.7421875 181.6) rotate(0 62.2578125 18.4)"><text x="62.2578125" y="0" font-family="Helvetica, Segoe UI Emoji" font-size="16px" fill="#1e1e1e" text-anchor="middle" style="white-space: pre;" direction="ltr" dominant-baseline="text-before-edge">[object]</text><text x="62.2578125" y="18.4" font-family="Helvetica, Segoe UI Emoji" font-size="16px" fill="#1e1e1e" text-anchor="middle" style="white-space: pre;" direction="ltr" dominant-baseline="text-before-edge">Action Attestation</text></g><g stroke-linecap="round" transform="translate(570 170) rotate(0 85.5 30.5)"><path d="M15.25 0 M15.25 0 C49.96 -2.37, 86.85 0.24, 155.75 0 M15.25 0 C67.87 1.46, 121.84 1.06, 155.75 0 M155.75 0 C165.24 1.24, 172.64 4.07, 171 15.25 M155.75 0 C166.34 -0.25, 170 7.21, 171 15.25 M171 15.25 C170.7 27.23, 170.59 37.03, 171 45.75 M171 15.25 C171.75 22.96, 170.98 29.17, 171 45.75 M171 45.75 C172.82 55.63, 165.05 61.74, 155.75 61 M171 45.75 C170.45 55.95, 167.62 62.4, 155.75 61 M155.75 61 C114.81 60.38, 70.63 59.91, 15.25 61 M155.75 61 C120.5 61.41, 85.68 62.75, 15.25 61 M15.25 61 C5.29 62.55, 1.22 56.78, 0 45.75 M15.25 61 C5.19 59.79, -1.93 54.5, 0 45.75 M0 45.75 C1.01 38.74, 1.26 32.56, 0 15.25 M0 45.75 C1.1 35.12, 1.07 25.64, 0 15.25 M0 15.25 C1.54 6.58, 4.26 -0.31, 15.25 0 M0 15.25 C-1.21 4.07, 6.79 -0.06, 15.25 0" stroke="#1e1e1e" stroke-width="1" fill="none"/></g><g transform="translate(609.69921875 182.1) rotate(0 45.80078125 18.4)"><text x="45.80078125" y="0" font-family="Helvetica, Segoe UI Emoji" font-size="16px" fill="#1e1e1e" text-anchor="middle" style="white-space: pre;" direction="ltr" dominant-baseline="text-before-edge">[object]</text><text x="45.80078125" y="18.4" font-family="Helvetica, Segoe UI Emoji" font-size="16px" fill="#1e1e1e" text-anchor="middle" style="white-space: pre;" direction="ltr" dominant-baseline="text-before-edge">Reward Pool</text></g><g mask="url(#mask-8lXXz_VcjoykD5sbMEKAx)" stroke-linecap="round"><g transform="translate(391 210) rotate(0 89 0)"><path d="M-0.79 -0.87 C28.86 -0.54, 148.97 0.92, 178.77 0.94 M1 1.28 C30.47 1.39, 148.85 -0.51, 178.23 -0.69" stroke="#1e1e1e" stroke-width="1" fill="none"/></g><g transform="translate(391 210) rotate(0 89 0)"><path d="M148.7 11.18 C162.33 6.15, 170.02 1.15, 179.37 0.03 M150.98 9.38 C159.27 6.26, 167.55 3.93, 179.07 -0.59" stroke="#1e1e1e" stroke-width="1" fill="none"/></g><g transform="translate(391 210) rotate(0 89 0)"><path d="M148.47 -9.34 C162 -6.68, 169.77 -3.99, 179.37 0.03 M150.75 -11.14 C159.04 -7.76, 167.4 -3.59, 179.07 -0.59" stroke="#1e1e1e" stroke-width="1" fill="none"/></g></g><mask id="mask-8lXXz_VcjoykD5sbMEKAx"><rect x="0" y="0" fill="#fff" width="669" height="310"/><rect x="452.875" y="200.8" fill="#000" width="54.25" height="18.4" opacity="1"/></mask><g transform="translate(452.875 200.8) rotate(0 27.11662294045091 9.405348550525794)"><text x="27.125" y="0" font-family="Helvetica, Segoe UI Emoji" font-size="16px" fill="#1e1e1e" text-anchor="middle" style="white-space: pre;" direction="ltr" dominant-baseline="text-before-edge">redeem</text></g><g mask="url(#mask-etTTtlaToIlVc_R_0qHeT)" stroke-linecap="round"><g transform="translate(215.47949886231766 368.7234042553191) rotate(0 52.77635413754973 -67.28583801353177)"><path d="M0.77 0.94 C18.5 -21.47, 88.21 -112.86, 105.58 -135.33 M-0.28 0.38 C17.36 -21.81, 87.28 -111.49, 104.64 -134.2" stroke="#1e1e1e" stroke-width="1" fill="none"/></g><g transform="translate(215.47949886231766 368.7234042553191) rotate(0 52.77635413754973 -67.28583801353177)"><path d="M97.07 -105.58 C96.59 -113.37, 101.13 -118.34, 104.98 -134.87 M95.69 -105.73 C98.15 -115, 102.73 -126.17, 105.12 -134.36" stroke="#1e1e1e" stroke-width="1" fill="none"/></g><g transform="translate(215.47949886231766 368.7234042553191) rotate(0 52.77635413754973 -67.28583801353177)"><path d="M80.84 -118.14 C84.06 -123.08, 92.41 -125.12, 104.98 -134.87 M79.46 -118.28 C87.9 -122.93, 98.36 -129.54, 105.12 -134.36" stroke="#1e1e1e" stroke-width="1" fill="none"/></g></g><mask id="mask-etTTtlaToIlVc_R_0qHeT"><rect x="0" y="0" fill="#fff" width="421.0322071374171" height="603.2950802823826"/><rect x="246.0214779998674" y="292.23756624178736" fill="#000" width="44.46875" height="18.4" opacity="1"/></mask><g transform="translate(246.0214779998674 292.23756624178736) rotate(0 22.105749118975353 9.28707739934324)"><text x="22.234375" y="0" font-family="Helvetica, Segoe UI Emoji" font-size="16px" fill="#1e1e1e" text-anchor="middle" style="white-space: pre;" direction="ltr" dominant-baseline="text-before-edge">create</text></g><g mask="url(#mask-qfXoT6u0_PWS4BhU15mUC)" stroke-linecap="round"><g transform="translate(74.3876836483148 234.7926029035064) rotate(0 35.89105005170697 66.96540067590638)"><path d="M0.02 -0.76 C11.76 21.52, 59.15 112.13, 71.19 134.61 M-1.42 1.45 C10.64 23.3, 61.4 110.5, 73.58 132.85" stroke="#1e1e1e" stroke-width="1" fill="none"/></g><g transform="translate(74.3876836483148 234.7926029035064) rotate(0 35.89105005170697 66.96540067590638)"><path d="M49.5 112.37 C60.37 121.18, 67.89 126.88, 74.83 134.49 M50.34 114.28 C57.33 118.35, 62.66 122.93, 73.72 132.63" stroke="#1e1e1e" stroke-width="1" fill="none"/></g><g transform="translate(74.3876836483148 234.7926029035064) rotate(0 35.89105005170697 66.96540067590638)"><path d="M67.36 102.26 C71.8 114.77, 72.81 124.15, 74.83 134.49 M68.2 104.18 C70.76 110.74, 71.64 117.84, 73.72 132.63" stroke="#1e1e1e" stroke-width="1" fill="none"/></g></g><mask id="mask-qfXoT6u0_PWS4BhU15mUC"><rect x="0" y="0" fill="#fff" width="246.16978375172874" height="468.72340425531917"/><rect x="71.1420149500218" y="292.5580035794128" fill="#000" width="78.2734375" height="18.4" opacity="1"/></mask><g transform="translate(71.1420149500218 292.5580035794128) rotate(0 39.325670793158906 9.159452243894336)"><text x="39.13671875" y="0" font-family="Helvetica, Segoe UI Emoji" font-size="16px" fill="#1e1e1e" text-anchor="middle" style="white-space: pre;" direction="ltr" dominant-baseline="text-before-edge">attested by</text></g><g mask="url(#mask-DO10-nbhbZ_Sw_kMF2VqJ)" stroke-linecap="round"><g transform="translate(90 73) rotate(0 0 48)"><path d="M1.1 0.66 C1.15 16.72, -0.34 80.31, -0.56 96.11 M0.21 -0.04 C0.14 16.25, -1.59 81.61, -1.8 97.71" stroke="#1e1e1e" stroke-width="1" fill="none"/></g><g transform="translate(90 73) rotate(0 0 48)"><path d="M-10.38 68.38 C-9.16 75.31, -8.01 80.47, -0.85 98.02 M-10.51 69.03 C-9.81 75.57, -7.86 81.96, -2.77 97.26" stroke="#1e1e1e" stroke-width="1" fill="none"/></g><g transform="translate(90 73) rotate(0 0 48)"><path d="M10.14 68.8 C6.72 75.82, 3.24 80.88, -0.85 98.02 M10.01 69.45 C6.19 75.82, 3.61 82.12, -2.77 97.26" stroke="#1e1e1e" stroke-width="1" fill="none"/></g></g><mask id="mask-DO10-nbhbZ_Sw_kMF2VqJ"><rect x="0" y="0" fill="#fff" width="190" height="269"/><rect x="67.765625" y="111.80000000000001" fill="#000" width="44.46875" height="18.4" opacity="1"/></mask><g transform="translate(67.765625 111.80000000000001) rotate(0 21.882380785120233 10.035452033961164)"><text x="22.234375" y="0" font-family="Helvetica, Segoe UI Emoji" font-size="16px" fill="#1e1e1e" text-anchor="middle" style="white-space: pre;" direction="ltr" dominant-baseline="text-before-edge">create</text></g><g mask="url(#mask-nl1NAOEjB7h1VRuog6dq-)" stroke-linecap="round"><g transform="translate(391 190) rotate(0 89 0)"><path d="M-0.98 -0.43 C28.62 -0.25, 147.69 0.75, 177.62 0.72 M0.71 -1.71 C30.12 -1.84, 146.9 -1.37, 176.47 -1.02" stroke="#1e1e1e" stroke-width="1" fill="none"/></g><g transform="translate(391 190) rotate(0 89 0)"><path d="M147.48 8.4 C157.89 7.18, 164.1 2.28, 175.52 -2.36 M147.6 9.62 C158.18 5.3, 166.6 1.94, 176.07 -1.04" stroke="#1e1e1e" stroke-width="1" fill="none"/></g><g transform="translate(391 190) rotate(0 89 0)"><path d="M147.63 -12.13 C157.93 -7.21, 164.1 -5.96, 175.52 -2.36 M147.74 -10.9 C158.14 -8.21, 166.51 -4.55, 176.07 -1.04" stroke="#1e1e1e" stroke-width="1" fill="none"/></g></g><mask id="mask-nl1NAOEjB7h1VRuog6dq-"><rect x="0" y="0" fill="#fff" width="669" height="290"/><rect x="434.19921875" y="180.8" fill="#000" width="91.6015625" height="18.4" opacity="1"/></mask><g transform="translate(434.19921875 180.8) rotate(0 45.1184117924422 8.696221350109866)"><text x="45.80078125" y="0" font-family="Helvetica, Segoe UI Emoji" font-size="16px" fill="#1e1e1e" text-anchor="middle" style="white-space: pre;" direction="ltr" dominant-baseline="text-before-edge">whitelisted in</text></g></svg>