<svg version="1.1" xmlns="http://www.w3.org/2000/svg" viewBox="0 0 1093 260" width="1093" height="260">
  <!-- svg-source:excalidraw -->
  
  <defs>
    <style class="style-fonts">
      @font-face {
        font-family: "Virgil";
        src: url("https://excalidraw.com/Virgil.woff2");
      }
      @font-face {
        font-family: "Cascadia";
        src: url("https://excalidraw.com/Cascadia.woff2");
      }
    </style>
    
  </defs>
  <rect x="0" y="0" width="1093" height="260" fill="#ffffff"/><g stroke-linecap="round" transform="translate(10 110) rotate(0 66 21.5)"><path d="M10.75 0 M10.75 0 C48.68 -1.56, 90.78 -0.11, 121.25 0 M10.75 0 C42.68 -0.9, 75.15 -0.05, 121.25 0 M121.25 0 C128.28 0.64, 130.12 3.03, 132 10.75 M121.25 0 C129.52 0.38, 133.37 1.35, 132 10.75 M132 10.75 C134.01 16.88, 130.78 20.1, 132 32.25 M132 10.75 C131.78 17.23, 131.96 23.21, 132 32.25 M132 32.25 C133.06 41.28, 129.31 41.03, 121.25 43 M132 32.25 C129.85 39.83, 126.81 43.17, 121.25 43 M121.25 43 C77.35 41.29, 34.66 41.61, 10.75 43 M121.25 43 C92.77 43.54, 65.21 43.09, 10.75 43 M10.75 43 C4.44 41.65, -1.38 37.68, 0 32.25 M10.75 43 C2.83 42.86, 1.58 38.15, 0 32.25 M0 32.25 C-1.41 25.38, -0.01 17.05, 0 10.75 M0 32.25 C0.96 26.88, -0.37 23.44, 0 10.75 M0 10.75 C0.4 4.3, 3.5 1.18, 10.75 0 M0 10.75 C0.66 4.11, 1.98 -0.46, 10.75 0" stroke="#1e1e1e" stroke-width="1" fill="none"/></g><g transform="translate(48.20703125 120) rotate(0 27.79296875 11.5)"><text x="27.79296875" y="0" font-family="Helvetica, Segoe UI Emoji" font-size="20px" fill="#1e1e1e" text-anchor="middle" style="white-space: pre;" direction="ltr" dominant-baseline="text-before-edge">Action</text></g><g stroke-linecap="round" transform="translate(250 210) rotate(0 66 20)"><path d="M10 0 M10 0 C44.54 0.72, 75.15 -0.86, 122 0 M10 0 C46.48 0.93, 83.01 1, 122 0 M122 0 C126.78 -0.55, 132.96 3.67, 132 10 M122 0 C130.03 -2.24, 130.84 4.18, 132 10 M132 10 C130.89 15.53, 131.85 25.48, 132 30 M132 10 C131.7 15.34, 132.45 21.03, 132 30 M132 30 C132.9 34.7, 126.8 40.36, 122 40 M132 30 C130.39 36.84, 130.82 40.85, 122 40 M122 40 C99.08 39.23, 74.4 38.55, 10 40 M122 40 C89.66 40.87, 56.91 40.03, 10 40 M10 40 C1.95 38.26, -0.66 36.54, 0 30 M10 40 C4.92 38.73, 1.24 36.05, 0 30 M0 30 C0.08 24.24, -1.44 17.95, 0 10 M0 30 C-0.6 22.93, 0.02 14.86, 0 10 M0 10 C-0.08 4.52, 3.9 0.46, 10 0 M0 10 C-1.6 2.87, 1.76 -1.03, 10 0" stroke="#1e1e1e" stroke-width="1" fill="none"/></g><g transform="translate(273.2021484375 218.5) rotate(0 42.7978515625 11.5)"><text x="42.7978515625" y="0" font-family="Helvetica, Segoe UI Emoji" font-size="20px" fill="#1e1e1e" text-anchor="middle" style="white-space: pre;" direction="ltr" dominant-baseline="text-before-edge">Attester n</text></g><g stroke-linecap="round" transform="translate(930 210) rotate(0 76.5 20)"><path d="M10 0 M10 0 C38.74 -1.65, 68.35 -0.47, 143 0 M10 0 C41.72 0, 72.64 -0.6, 143 0 M143 0 C150.63 0.33, 154.19 1.39, 153 10 M143 0 C148.5 0.85, 154.04 5.55, 153 10 M153 10 C152.53 18.44, 151.92 22.75, 153 30 M153 10 C153.49 17.73, 153.4 22.61, 153 30 M153 30 C151.13 37.03, 148.27 40.15, 143 40 M153 30 C155.16 37.52, 147.56 39.56, 143 40 M143 40 C106.85 38.68, 72.34 39.23, 10 40 M143 40 C95.2 39.56, 45.84 39.36, 10 40 M10 40 C2.68 39.88, 1.38 35.57, 0 30 M10 40 C4.57 39.39, -0.25 34.98, 0 30 M0 30 C-1.58 22.78, 1.75 18.34, 0 10 M0 30 C0.28 25.61, 0.04 21.1, 0 10 M0 10 C0.57 3.79, 1.94 -0.4, 10 0 M0 10 C-1.57 2.3, 1.65 1.11, 10 0" stroke="#1e1e1e" stroke-width="1" fill="none"/></g><g transform="translate(943.6875 218.5) rotate(0 62.8125 11.5)"><text x="62.8125" y="0" font-family="Helvetica, Segoe UI Emoji" font-size="20px" fill="#1e1e1e" text-anchor="middle" style="white-space: pre;" direction="ltr" dominant-baseline="text-before-edge">RewardPool n</text></g><g stroke-linecap="round" transform="translate(570 210) rotate(0 66 20)"><path d="M10 0 M10 0 C43 0.4, 73.73 0.89, 122 0 M10 0 C45.37 -0.64, 83.11 -0.19, 122 0 M122 0 C129.85 -1.95, 130.99 4.07, 132 10 M122 0 C129.71 2.22, 132.89 1.84, 132 10 M132 10 C131.02 13.83, 132.76 18.81, 132 30 M132 10 C132.55 15.59, 131.17 23.33, 132 30 M132 30 C130.6 36.81, 130.54 40.74, 122 40 M132 30 C129.9 36.23, 127.86 40.5, 122 40 M122 40 C90.39 38.89, 60.34 40.25, 10 40 M122 40 C85.77 38.38, 50.6 39.18, 10 40 M10 40 C4.71 38.9, 1.08 36.13, 0 30 M10 40 C3.08 38.32, 0.85 36.59, 0 30 M0 30 C1.91 25.79, -1.09 17.11, 0 10 M0 30 C-0.08 23.23, 0.24 15.51, 0 10 M0 10 C-1.39 2.93, 1.97 -0.9, 10 0 M0 10 C-1.68 4.44, 3.83 0.84, 10 0" stroke="#1e1e1e" stroke-width="1" fill="none"/></g><g transform="translate(580.4091796875 218.5) rotate(0 55.5908203125 11.5)"><text x="55.5908203125" y="0" font-family="Helvetica, Segoe UI Emoji" font-size="20px" fill="#1e1e1e" text-anchor="middle" style="white-space: pre;" direction="ltr" dominant-baseline="text-before-edge">Attestation n</text></g><g mask="url(#mask-BtK8lCvEErNyRdZArHB2n)" stroke-linecap="round"><g transform="translate(710 230) rotate(0 109.5 0)"><path d="M-0.36 -0.73 C36.31 -0.74, 182.39 0.1, 218.93 0.29 M1.65 1.5 C38.25 1.09, 181.87 -1.14, 217.95 -1.68" stroke="#1e1e1e" stroke-width="1" fill="none"/></g><g transform="translate(710 230) rotate(0 109.5 0)"><path d="M188.7 8.9 C196.28 6.71, 202.34 2.71, 217.39 -0.72 M189.41 9.38 C199.18 6.86, 207.99 1.86, 217.26 -1.85" stroke="#1e1e1e" stroke-width="1" fill="none"/></g><g transform="translate(710 230) rotate(0 109.5 0)"><path d="M188.39 -11.62 C196.09 -9.49, 202.21 -9.16, 217.39 -0.72 M189.1 -11.14 C199.09 -7.16, 208 -5.66, 217.26 -1.85" stroke="#1e1e1e" stroke-width="1" fill="none"/></g></g><mask id="mask-BtK8lCvEErNyRdZArHB2n"><rect x="0" y="0" fill="#fff" width="1029" height="330"/><rect x="762.2490234375" y="218.5" fill="#000" width="114.501953125" height="23" opacity="1"/></mask><g transform="translate(762.2490234375 218.5) rotate(0 57.036607266589996 11.409979273676868)"><text x="57.2509765625" y="0" font-family="Helvetica, Segoe UI Emoji" font-size="20px" fill="#1e1e1e" text-anchor="middle" style="white-space: pre;" direction="ltr" dominant-baseline="text-before-edge">whitelisted in</text></g><g stroke-linecap="round"><g transform="translate(74.3630459660136 158.81926109677272) rotate(0 85.1369540339864 35.59036945161364)"><path d="M0.48 -0.13 C-0.97 17.33, -3.34 39.39, -4.03 72.37 M0.45 0.97 C-0.86 13.8, -2.82 28.71, -3.53 70.71 M-3.79 72.24 C44.09 72.46, 86.84 69.7, 175 69.78 M-5.28 70.99 C50.31 70.74, 105.48 70.07, 174.11 71.11" stroke="#1e1e1e" stroke-width="1" fill="none"/></g><g transform="translate(74.3630459660136 158.81926109677272) rotate(0 85.1369540339864 35.59036945161364)"><path d="M146.31 80.98 C154.16 76.54, 160.6 76.69, 174.44 72.29 M146.28 82.08 C151.99 78.33, 156.65 76.78, 174.94 70.63" stroke="#1e1e1e" stroke-width="1" fill="none"/></g><g transform="translate(74.3630459660136 158.81926109677272) rotate(0 85.1369540339864 35.59036945161364)"><path d="M146.49 60.46 C154.17 61.56, 160.56 67.25, 174.44 72.29 M146.46 61.56 C152.04 61.97, 156.66 64.58, 174.94 70.63" stroke="#1e1e1e" stroke-width="1" fill="none"/></g></g><mask/><g stroke-linecap="round" transform="translate(250 10) rotate(0 66 20)"><path d="M10 0 M10 0 C36.57 0.92, 61.23 -0.37, 122 0 M10 0 C52.24 -1.18, 95.56 -0.2, 122 0 M122 0 C127.03 1.17, 131.66 3.19, 132 10 M122 0 C127.11 -0.22, 131.06 3.75, 132 10 M132 10 C131.09 17.21, 130.6 21.07, 132 30 M132 10 C132.31 16.66, 131.71 21.6, 132 30 M132 30 C130.35 38.6, 129.69 41.85, 122 40 M132 30 C131.28 38.06, 130.83 38.35, 122 40 M122 40 C85.75 41.37, 47.77 38.64, 10 40 M122 40 C83.64 39.48, 43.8 38.97, 10 40 M10 40 C2.47 39.04, 0.63 36.49, 0 30 M10 40 C3.27 40.83, -1.82 36.84, 0 30 M0 30 C1.17 25.67, 0.92 19, 0 10 M0 30 C-0.92 25.01, 0.92 22.31, 0 10 M0 10 C-1.31 1.66, 4.26 -1.31, 10 0 M0 10 C0.75 3.22, 1.54 -1.26, 10 0" stroke="#1e1e1e" stroke-width="1" fill="none"/></g><g transform="translate(273.2021484375 18.5) rotate(0 42.7978515625 11.5)"><text x="42.7978515625" y="0" font-family="Helvetica, Segoe UI Emoji" font-size="20px" fill="#1e1e1e" text-anchor="middle" style="white-space: pre;" direction="ltr" dominant-baseline="text-before-edge">Attester 1</text></g><g stroke-linecap="round" transform="translate(930 10) rotate(0 76.5 20)"><path d="M10 0 M10 0 C60.27 -0.74, 108.16 0.01, 143 0 M10 0 C58.53 1.13, 105.61 1.22, 143 0 M143 0 C149.32 -0.14, 151.64 3.14, 153 10 M143 0 C148.72 0.41, 152.61 5.27, 153 10 M153 10 C151.32 15.57, 152.79 20.72, 153 30 M153 10 C152.88 16.4, 152.26 24.15, 153 30 M153 30 C154.02 38.52, 149.04 41.21, 143 40 M153 30 C155.16 35.01, 150.19 39.2, 143 40 M143 40 C105.76 40.2, 73.32 42.22, 10 40 M143 40 C107.44 39.16, 71.76 39.33, 10 40 M10 40 C3.97 39.82, -0.06 37.39, 0 30 M10 40 C1.51 40.18, -0.19 36.05, 0 30 M0 30 C0.76 23.48, -2.11 15.86, 0 10 M0 30 C1.12 24.86, -0.48 18.26, 0 10 M0 10 C0.93 2.03, 3.99 -0.1, 10 0 M0 10 C-1.8 2.08, 1.27 1.94, 10 0" stroke="#1e1e1e" stroke-width="1" fill="none"/></g><g transform="translate(943.6875 18.5) rotate(0 62.8125 11.5)"><text x="62.8125" y="0" font-family="Helvetica, Segoe UI Emoji" font-size="20px" fill="#1e1e1e" text-anchor="middle" style="white-space: pre;" direction="ltr" dominant-baseline="text-before-edge">RewardPool 1</text></g><g stroke-linecap="round" transform="translate(570 10) rotate(0 66 20)"><path d="M10 0 M10 0 C54.32 0.91, 96.66 -0.94, 122 0 M10 0 C37.44 0.03, 66.34 -0.63, 122 0 M122 0 C127.31 -0.19, 131.18 3.69, 132 10 M122 0 C128.27 1.93, 131.79 2.1, 132 10 M132 10 C131.74 16.64, 132.43 25.92, 132 30 M132 10 C131.14 18.49, 132.47 25.96, 132 30 M132 30 C131.38 37.88, 130.55 38.56, 122 40 M132 30 C132.52 35.87, 127.88 39.9, 122 40 M122 40 C79.51 40.51, 34.41 40.79, 10 40 M122 40 C89.56 38.79, 58.29 39.19, 10 40 M10 40 C3.27 40.72, -1.58 36.82, 0 30 M10 40 C3.14 39.38, 1.36 37.95, 0 30 M0 30 C-2.09 22.72, -0.64 13.19, 0 10 M0 30 C-0.84 25.13, 0.28 21.28, 0 10 M0 10 C0.65 3.23, 1.77 -1.09, 10 0 M0 10 C-2.06 5.28, 3.4 -0.7, 10 0" stroke="#1e1e1e" stroke-width="1" fill="none"/></g><g transform="translate(580.4091796875 18.5) rotate(0 55.5908203125 11.5)"><text x="55.5908203125" y="0" font-family="Helvetica, Segoe UI Emoji" font-size="20px" fill="#1e1e1e" text-anchor="middle" style="white-space: pre;" direction="ltr" dominant-baseline="text-before-edge">Attestation 1</text></g><g mask="url(#mask-oRQV71XnRoSzZg2ce_SC_)" stroke-linecap="round"><g transform="translate(384.35296447861555 30.457666032879786) rotate(0 92.32351776069223 -0.22760039230561802)"><path d="M0.66 0.75 C31.32 0.42, 153.47 -0.93, 184.2 -1.03 M-0.46 0.1 C29.99 -0.16, 152.19 0.54, 183.01 0.21" stroke="#1e1e1e" stroke-width="1" fill="none"/></g><g transform="translate(384.35296447861555 30.457666032879786) rotate(0 92.32351776069223 -0.22760039230561802)"><path d="M156.09 9.76 C162.73 7.72, 173.62 2.19, 184.18 -0.14 M154.43 10.69 C162.99 8.36, 171.33 3.96, 183.79 -0.58" stroke="#1e1e1e" stroke-width="1" fill="none"/></g><g transform="translate(384.35296447861555 30.457666032879786) rotate(0 92.32351776069223 -0.22760039230561802)"><path d="M156.06 -10.76 C162.88 -6.29, 173.77 -5.32, 184.18 -0.14 M154.4 -9.83 C162.83 -6.15, 171.17 -4.53, 183.79 -0.58" stroke="#1e1e1e" stroke-width="1" fill="none"/></g></g><mask id="mask-oRQV71XnRoSzZg2ce_SC_"><rect x="0" y="0" fill="#fff" width="669" height="130.91286681749102"/><rect x="453.3317556768078" y="18.73006564057414" fill="#000" width="46.689453125" height="23" opacity="1"/></mask><g transform="translate(453.3317556768078 18.73006564057414) rotate(0 22.891393563104756 11.58869848512117)"><text x="23.3447265625" y="0" font-family="Helvetica, Segoe UI Emoji" font-size="20px" fill="#1e1e1e" text-anchor="middle" style="white-space: pre;" direction="ltr" dominant-baseline="text-before-edge">issue</text></g><g mask="url(#mask-LLU7ySFoGDa9FScJ2L6Ky)" stroke-linecap="round"><g transform="translate(710 30) rotate(0 109.5 0)"><path d="M-0.45 -0.57 C36 -0.6, 182.97 0.39, 219.38 0.6 M1.51 1.74 C37.79 1.3, 182.15 -0.71, 218.63 -1.21" stroke="#1e1e1e" stroke-width="1" fill="none"/></g><g transform="translate(710 30) rotate(0 109.5 0)"><path d="M189.63 10.07 C201.47 4.13, 211.59 1.65, 218.49 -2.56 M190.41 10.28 C198.68 5.76, 207.69 2.42, 218.51 -1.26" stroke="#1e1e1e" stroke-width="1" fill="none"/></g><g transform="translate(710 30) rotate(0 109.5 0)"><path d="M189.35 -10.45 C201.41 -9.11, 211.63 -4.31, 218.49 -2.56 M190.13 -10.24 C198.39 -8.8, 207.48 -6.19, 218.51 -1.26" stroke="#1e1e1e" stroke-width="1" fill="none"/></g></g><mask id="mask-LLU7ySFoGDa9FScJ2L6Ky"><rect x="0" y="0" fill="#fff" width="1029" height="130"/><rect x="762.2490234375" y="18.5" fill="#000" width="114.501953125" height="23" opacity="1"/></mask><g transform="translate(762.2490234375 18.5) rotate(0 57.21555184461177 11.766410948801763)"><text x="57.2509765625" y="0" font-family="Helvetica, Segoe UI Emoji" font-size="20px" fill="#1e1e1e" text-anchor="middle" style="white-space: pre;" direction="ltr" dominant-baseline="text-before-edge">whitelisted in</text></g><g stroke-linecap="round"><g transform="translate(70.95136186255809 109) rotate(0 89.02431906872096 -39.079064654528395)"><path d="M1.93 0.77 C-1.59 -20.87, -0.63 -37.33, -0.95 -78.95 M0.53 0.93 C0.62 -27.55, -0.77 -52.95, -0.7 -78.08 M-0.38 -78.86 C70.55 -76.91, 139.34 -77.59, 177.9 -78.67 M0.43 -78.83 C63.88 -79.34, 128.82 -78.53, 178.74 -78.71" stroke="#1e1e1e" stroke-width="1" fill="none"/></g><g transform="translate(70.95136186255809 109) rotate(0 89.02431906872096 -39.079064654528395)"><path d="M152.47 -67.7 C156.23 -72.53, 164.23 -72.04, 177.79 -79.5 M151.07 -67.54 C160.59 -73.02, 168.79 -75.33, 178.04 -78.63" stroke="#1e1e1e" stroke-width="1" fill="none"/></g><g transform="translate(70.95136186255809 109) rotate(0 89.02431906872096 -39.079064654528395)"><path d="M152.49 -88.22 C156.32 -87.93, 164.31 -82.32, 177.79 -79.5 M151.09 -88.06 C160.56 -86.56, 168.75 -81.9, 178.04 -78.63" stroke="#1e1e1e" stroke-width="1" fill="none"/></g></g><mask/><g mask="url(#mask-mCWG75H0Z66BUR9AWYgLP)" stroke-linecap="round"><g transform="translate(390 230) rotate(0 89.5 0)"><path d="M-1.3 -1.38 C61.49 0.98, 122.71 -1.48, 179.8 -0.43 M0.45 -0.98 C57.91 -1.49, 116.99 -1.6, 179.94 0.37" stroke="#1e1e1e" stroke-width="1" fill="none"/></g><g transform="translate(390 230) rotate(0 89.5 0)"><path d="M150.22 8.62 C160.91 8.23, 170.11 2.44, 180.74 -0.06 M151.97 9.01 C159.88 6.74, 169.45 3.47, 180.88 0.74" stroke="#1e1e1e" stroke-width="1" fill="none"/></g><g transform="translate(390 230) rotate(0 89.5 0)"><path d="M150.69 -11.9 C161.41 -5.2, 170.45 -3.9, 180.74 -0.06 M152.43 -11.51 C160.3 -7.02, 169.72 -3.55, 180.88 0.74" stroke="#1e1e1e" stroke-width="1" fill="none"/></g></g><mask id="mask-mCWG75H0Z66BUR9AWYgLP"><rect x="0" y="0" fill="#fff" width="669" height="330"/><rect x="456.1552734375" y="218.5" fill="#000" width="46.689453125" height="23" opacity="1"/></mask><g transform="translate(456.1552734375 218.5) rotate(0 23.16394507093355 10.996620595920831)"><text x="23.3447265625" y="0" font-family="Helvetica, Segoe UI Emoji" font-size="20px" fill="#1e1e1e" text-anchor="middle" style="white-space: pre;" direction="ltr" dominant-baseline="text-before-edge">issue</text></g><g stroke-linecap="round" transform="translate(250 110) rotate(0 66 20)"><path d="M10 0 M10 0 C43.61 -1.81, 75.38 1.04, 122 0 M10 0 C44.96 1.46, 81.38 2.05, 122 0 M122 0 C129.44 -1.3, 130.62 2.99, 132 10 M122 0 C130.58 -1.09, 131.09 4.25, 132 10 M132 10 C133.92 16.46, 130.09 19.27, 132 30 M132 10 C132.8 16.73, 130.95 22.53, 132 30 M132 30 C131.3 37.1, 128.28 39.11, 122 40 M132 30 C130.78 36.49, 128.08 41.44, 122 40 M122 40 C82.32 39.1, 43.6 39.83, 10 40 M122 40 C89.63 39.12, 56.06 38.65, 10 40 M10 40 C4.07 39.93, 0.02 35.08, 0 30 M10 40 C2.78 42.01, 2.08 35.23, 0 30 M0 30 C0.58 24.76, 1.05 20.26, 0 10 M0 30 C-0.54 23.09, -0.59 17.57, 0 10 M0 10 C0.43 4.07, 2.91 1.59, 10 0 M0 10 C-0.76 1.5, 3.46 -0.25, 10 0" stroke="#1e1e1e" stroke-width="1" fill="none"/></g><g transform="translate(270.4287109375 118.5) rotate(0 45.5712890625 11.5)"><text x="45.5712890625" y="0" font-family="Helvetica, Segoe UI Emoji" font-size="20px" fill="#1e1e1e" text-anchor="middle" style="white-space: pre;" direction="ltr" dominant-baseline="text-before-edge">Attester ...</text></g><g stroke-linecap="round" transform="translate(930 110) rotate(0 76.5 20)"><path d="M10 0 M10 0 C48.45 2.21, 88.34 2.44, 143 0 M10 0 C37.42 0.48, 64.32 -1.14, 143 0 M143 0 C148.29 -0.34, 154.67 2.38, 153 10 M143 0 C148.75 0.92, 152.5 3.99, 153 10 M153 10 C151.22 15.19, 153.55 22.73, 153 30 M153 10 C152.27 15.96, 152.84 22.51, 153 30 M153 30 C152.62 35.78, 148.6 39.85, 143 40 M153 30 C152.41 38.11, 150.64 40.4, 143 40 M143 40 C95.63 38.42, 51.62 40.46, 10 40 M143 40 C110.31 38.91, 78.21 39.61, 10 40 M10 40 C3.36 38.42, -0.48 38.41, 0 30 M10 40 C5.42 38.56, -0.97 38.23, 0 30 M0 30 C1.11 24.17, 0.39 15.8, 0 10 M0 30 C-0.59 24.88, 0.35 19.17, 0 10 M0 10 C-0.42 4.93, 2.67 -1.59, 10 0 M0 10 C0.13 3.08, 1.34 0.17, 10 0" stroke="#1e1e1e" stroke-width="1" fill="none"/></g><g transform="translate(940.9140625 118.5) rotate(0 65.5859375 11.5)"><text x="65.5859375" y="0" font-family="Helvetica, Segoe UI Emoji" font-size="20px" fill="#1e1e1e" text-anchor="middle" style="white-space: pre;" direction="ltr" dominant-baseline="text-before-edge">RewardPool ...</text></g><g stroke-linecap="round" transform="translate(570 110) rotate(0 66 20)"><path d="M10 0 M10 0 C33.39 0.65, 54.18 -1.55, 122 0 M10 0 C48.1 -1.73, 84.74 -1.25, 122 0 M122 0 C130.33 -0.95, 131.21 4.13, 132 10 M122 0 C128.17 0.66, 133.22 5.48, 132 10 M132 10 C132.16 15.5, 131.95 25.67, 132 30 M132 10 C131.47 16.96, 131.63 23.04, 132 30 M132 30 C130.94 36.52, 128.16 41.25, 122 40 M132 30 C132.97 37.06, 129.66 38.45, 122 40 M122 40 C96.03 41.01, 69.2 40.71, 10 40 M122 40 C91.75 39.15, 60.77 38.39, 10 40 M10 40 C2.85 41.75, 1.81 35.41, 0 30 M10 40 C2.36 41.56, 0.46 37.49, 0 30 M0 30 C0.34 22.68, -0.52 16.79, 0 10 M0 30 C0.36 25.26, -0.07 20.59, 0 10 M0 10 C-0.66 1.74, 3.45 -0.22, 10 0 M0 10 C-2 3.5, 2.26 2.05, 10 0" stroke="#1e1e1e" stroke-width="1" fill="none"/></g><g transform="translate(577.6357421875 118.5) rotate(0 58.3642578125 11.5)"><text x="58.3642578125" y="0" font-family="Helvetica, Segoe UI Emoji" font-size="20px" fill="#1e1e1e" text-anchor="middle" style="white-space: pre;" direction="ltr" dominant-baseline="text-before-edge">Attestation ...</text></g><g mask="url(#mask-7nmz_8KSaBu5YIQzVaJ2b)" stroke-linecap="round"><g transform="translate(384.35296447861555 130.45766603287979) rotate(0 92.32351776069223 -0.22760039230561802)"><path d="M0.71 -1.17 C31.29 -1.2, 153.29 -0.33, 184.04 -0.01 M-0.37 0.83 C30.55 0.41, 155.59 -1.59, 186.43 -1.91" stroke="#1e1e1e" stroke-width="1" fill="none"/></g><g transform="translate(384.35296447861555 130.45766603287979) rotate(0 92.32351776069223 -0.22760039230561802)"><path d="M156.44 7.72 C168.87 5.77, 179.83 1.93, 185.13 -3.28 M157.99 9.13 C166.02 6.14, 174.7 3.78, 186.88 -2.89" stroke="#1e1e1e" stroke-width="1" fill="none"/></g><g transform="translate(384.35296447861555 130.45766603287979) rotate(0 92.32351776069223 -0.22760039230561802)"><path d="M156.16 -12.8 C168.72 -7.61, 179.78 -4.3, 185.13 -3.28 M157.71 -11.39 C165.99 -8.57, 174.75 -5.12, 186.88 -2.89" stroke="#1e1e1e" stroke-width="1" fill="none"/></g></g><mask id="mask-7nmz_8KSaBu5YIQzVaJ2b"><rect x="0" y="0" fill="#fff" width="669" height="230.91286681749102"/><rect x="453.3317556768078" y="118.73006564057414" fill="#000" width="46.689453125" height="23" opacity="1"/></mask><g transform="translate(453.3317556768078 118.73006564057414) rotate(0 24.052100808322407 11.192220094502005)"><text x="23.3447265625" y="0" font-family="Helvetica, Segoe UI Emoji" font-size="20px" fill="#1e1e1e" text-anchor="middle" style="white-space: pre;" direction="ltr" dominant-baseline="text-before-edge">issue</text></g><g mask="url(#mask-_FgGZBrya9sg_HyNqa8JG)" stroke-linecap="round"><g transform="translate(710 130) rotate(0 109.5 0)"><path d="M-0.61 0.44 C35.87 0.83, 182.87 1.36, 219.54 1.16 M1.28 -0.37 C37.58 -0.19, 182.61 -0.44, 218.88 -0.36" stroke="#1e1e1e" stroke-width="1" fill="none"/></g><g transform="translate(710 130) rotate(0 109.5 0)"><path d="M191.43 10.81 C202.85 7.13, 209.76 1.29, 218.54 1.31 M190.48 10.19 C198.38 8.13, 205.42 3.62, 217.95 -0.18" stroke="#1e1e1e" stroke-width="1" fill="none"/></g><g transform="translate(710 130) rotate(0 109.5 0)"><path d="M191.43 -9.71 C202.66 -6.02, 209.56 -4.48, 218.54 1.31 M190.48 -10.33 C198.3 -7.21, 205.34 -6.53, 217.95 -0.18" stroke="#1e1e1e" stroke-width="1" fill="none"/></g></g><mask id="mask-_FgGZBrya9sg_HyNqa8JG"><rect x="0" y="0" fill="#fff" width="1029" height="230"/><rect x="762.2490234375" y="118.5" fill="#000" width="114.501953125" height="23" opacity="1"/></mask><g transform="translate(762.2490234375 118.5) rotate(0 57.22019202820957 11.915055958117819)"><text x="57.2509765625" y="0" font-family="Helvetica, Segoe UI Emoji" font-size="20px" fill="#1e1e1e" text-anchor="middle" style="white-space: pre;" direction="ltr" dominant-baseline="text-before-edge">whitelisted in</text></g><g stroke-linecap="round"><g transform="translate(150 130) rotate(0 49.5 1.1008714129892496)"><path d="M-1.81 -0.79 C20.42 1.87, 42.57 -0.08, 100.7 2.32 M-0.98 0.37 C38.48 2.31, 78.6 3.04, 99.66 1.24" stroke="#1e1e1e" stroke-width="1" fill="none"/></g><g transform="translate(150 130) rotate(0 49.5 1.1008714129892496)"><path d="M70.11 11.86 C76.53 11.24, 82.95 6.29, 101.36 1.36 M70.94 13.02 C82.39 9.03, 94.56 4.42, 100.32 0.28" stroke="#1e1e1e" stroke-width="1" fill="none"/></g><g transform="translate(150 130) rotate(0 49.5 1.1008714129892496)"><path d="M69.26 -8.64 C75.99 -4.74, 82.59 -5.16, 101.36 1.36 M70.1 -7.48 C81.97 -3.42, 94.48 0.01, 100.32 0.28" stroke="#1e1e1e" stroke-width="1" fill="none"/></g></g><mask/></svg>